<svg id="svg" version="1.1" xmlns="http://www.w3.org/2000/svg" xmlns:xlink="http://www.w3.org/1999/xlink" width="400" height="399.7532387415176" viewBox="0, 0, 400,399.7532387415176"><g id="svgg"><path id="path0" d="M80.568 72.597 C 79.482 74.514,78.316 76.592,77.977 77.215 C 77.637 77.837,77.295 78.402,77.215 78.470 C 77.136 78.538,76.735 79.204,76.326 79.951 C 75.916 80.697,75.343 81.696,75.053 82.171 C 74.763 82.647,74.388 83.313,74.220 83.652 C 74.052 83.991,73.857 84.324,73.786 84.392 C 73.715 84.460,73.491 84.849,73.288 85.256 C 73.085 85.663,72.863 86.052,72.795 86.120 C 72.597 86.317,72.076 87.177,71.750 87.847 C 71.584 88.186,69.741 91.407,67.653 95.003 C 65.566 98.600,63.608 101.986,63.302 102.529 C 62.996 103.072,62.518 103.905,62.238 104.380 C 61.959 104.855,61.365 105.938,60.919 106.786 C 60.474 107.634,60.020 108.328,59.912 108.328 C 59.805 108.328,59.716 108.470,59.716 108.642 C 59.716 108.815,59.328 109.546,58.853 110.268 C 58.378 110.989,57.989 111.633,57.989 111.700 C 57.989 111.816,53.054 120.408,52.555 121.160 C 52.420 121.363,52.178 121.808,52.017 122.147 C 51.856 122.486,51.588 122.930,51.421 123.134 C 51.255 123.337,50.829 124.059,50.475 124.738 C 50.121 125.416,49.730 126.138,49.606 126.342 C 49.481 126.545,48.905 127.545,48.325 128.563 C 47.745 129.581,47.212 130.469,47.140 130.537 C 47.067 130.605,46.675 131.298,46.268 132.078 C 45.861 132.858,45.444 133.497,45.342 133.497 C 45.241 133.497,45.157 133.615,45.157 133.759 C 45.157 133.903,43.998 136.016,42.581 138.454 C 41.164 140.893,39.935 143.107,39.850 143.375 C 39.765 143.643,39.603 143.862,39.489 143.862 C 39.376 143.862,39.161 144.167,39.012 144.540 C 38.862 144.914,38.520 145.552,38.250 145.959 C 37.980 146.366,37.685 146.866,37.594 147.070 C 37.176 147.999,35.165 151.397,34.990 151.470 C 34.882 151.516,34.793 151.663,34.793 151.797 C 34.793 152.044,32.838 155.476,32.567 155.706 C 32.487 155.774,32.275 156.191,32.097 156.632 C 31.918 157.073,31.675 157.434,31.556 157.434 C 31.436 157.434,31.339 157.556,31.339 157.705 C 31.339 157.854,30.746 158.992,30.022 160.234 C 29.297 161.476,28.630 162.659,28.538 162.862 C 28.447 163.066,28.155 163.566,27.889 163.973 C 27.624 164.380,27.236 165.046,27.029 165.453 C 26.821 165.861,26.431 166.527,26.161 166.934 C 25.891 167.341,25.563 167.919,25.431 168.217 C 25.299 168.516,24.887 169.238,24.516 169.821 C 24.145 170.405,23.516 171.493,23.117 172.239 C 22.719 172.986,22.296 173.634,22.177 173.679 C 22.059 173.724,21.962 173.874,21.962 174.012 C 21.962 174.150,21.351 175.300,20.605 176.568 C 18.997 179.300,19.038 178.966,20.111 180.595 C 20.586 181.316,20.975 181.960,20.975 182.027 C 20.975 182.255,23.064 185.688,23.253 185.770 C 23.357 185.815,23.442 185.962,23.442 186.097 C 23.442 186.231,24.258 187.749,25.254 189.469 C 26.251 191.190,27.141 192.764,27.231 192.967 C 27.322 193.171,27.616 193.671,27.884 194.078 C 28.153 194.485,28.510 195.096,28.678 195.435 C 28.847 195.774,29.052 196.107,29.134 196.175 C 29.216 196.243,29.650 196.965,30.098 197.779 C 30.546 198.593,31.249 199.870,31.660 200.617 C 32.071 201.363,32.474 202.030,32.556 202.097 C 32.639 202.165,32.845 202.498,33.014 202.838 C 33.184 203.177,33.593 203.899,33.923 204.442 C 34.253 204.985,34.606 205.595,34.707 205.799 C 34.954 206.294,40.658 216.185,40.969 216.656 C 41.103 216.860,41.346 217.304,41.509 217.643 C 41.671 217.983,42.092 218.705,42.443 219.247 C 42.794 219.790,43.216 220.512,43.381 220.851 C 43.545 221.191,43.959 221.912,44.300 222.455 C 44.642 222.998,44.994 223.609,45.083 223.812 C 45.172 224.016,45.308 224.238,45.386 224.306 C 45.464 224.374,45.757 224.874,46.038 225.416 C 46.319 225.959,47.586 228.180,48.855 230.352 C 50.123 232.523,51.393 234.744,51.676 235.287 C 51.959 235.830,52.254 236.329,52.331 236.397 C 52.409 236.465,52.552 236.687,52.650 236.891 C 52.747 237.094,53.158 237.816,53.564 238.495 C 53.969 239.173,54.366 239.923,54.446 240.160 C 54.526 240.398,54.678 240.592,54.783 240.592 C 54.888 240.592,55.042 240.862,55.125 241.192 C 55.208 241.522,55.415 241.938,55.586 242.117 C 55.757 242.296,56.037 242.721,56.208 243.060 C 56.378 243.399,56.788 244.121,57.118 244.664 C 57.448 245.207,57.801 245.817,57.901 246.021 C 58.002 246.225,58.840 247.687,59.764 249.272 C 60.688 250.856,61.444 252.262,61.444 252.397 C 61.444 252.532,61.531 252.679,61.638 252.725 C 61.831 252.807,62.791 254.379,63.803 256.271 C 64.585 257.734,65.006 258.467,65.145 258.606 C 65.213 258.674,65.418 258.994,65.600 259.318 C 65.782 259.642,66.160 260.308,66.438 260.799 C 66.717 261.289,67.278 262.301,67.685 263.048 C 68.092 263.794,68.742 264.882,69.129 265.466 C 69.517 266.049,69.833 266.581,69.833 266.647 C 69.833 266.712,70.833 268.474,72.054 270.560 C 73.276 272.647,74.275 274.466,74.275 274.603 C 74.275 274.739,74.368 274.888,74.481 274.933 C 74.594 274.978,75.121 275.792,75.653 276.741 C 76.184 277.690,76.755 278.690,76.921 278.962 C 77.087 279.234,77.366 279.735,77.541 280.074 C 77.716 280.413,78.147 281.135,78.499 281.678 C 78.850 282.221,79.217 282.915,79.314 283.220 C 79.411 283.526,79.583 283.775,79.696 283.775 C 79.810 283.775,80.028 284.081,80.182 284.454 C 80.335 284.827,80.891 285.910,81.417 286.860 L 82.372 288.587 116.572 288.650 C 143.567 288.699,150.771 288.648,150.771 288.408 C 150.771 288.146,151.025 287.429,152.017 284.886 C 152.123 284.614,152.508 283.504,152.873 282.418 C 153.238 281.333,153.626 280.222,153.737 279.951 C 153.847 279.679,154.235 278.569,154.600 277.483 C 154.965 276.397,155.354 275.287,155.464 275.015 C 155.574 274.744,155.961 273.634,156.323 272.548 C 156.686 271.462,157.070 270.404,157.177 270.195 C 157.284 269.987,157.455 269.436,157.557 268.970 C 157.659 268.504,157.839 267.952,157.957 267.744 C 158.200 267.313,158.826 265.559,159.192 264.281 C 159.328 263.806,159.599 263.068,159.794 262.640 C 159.989 262.212,160.148 261.729,160.148 261.567 C 160.148 261.404,160.306 260.921,160.499 260.494 C 160.692 260.066,161.139 258.828,161.492 257.742 C 161.846 256.656,162.243 255.575,162.375 255.340 C 162.507 255.104,162.616 254.788,162.616 254.637 C 162.616 254.486,162.775 254.012,162.970 253.584 C 163.165 253.157,163.436 252.418,163.572 251.943 C 163.864 250.922,164.514 249.061,164.821 248.365 C 165.045 247.857,165.682 245.971,166.072 244.664 C 166.396 243.577,167.287 241.039,167.544 240.469 C 167.667 240.197,168.070 239.087,168.439 238.001 C 169.247 235.629,170.625 231.730,170.836 231.215 C 170.920 231.012,171.322 229.846,171.730 228.624 C 172.838 225.307,173.216 224.235,173.468 223.689 C 173.594 223.418,173.806 222.807,173.940 222.332 C 174.074 221.857,174.635 220.191,175.188 218.630 C 175.740 217.070,176.471 214.960,176.813 213.942 C 177.154 212.924,177.585 211.758,177.771 211.351 C 177.957 210.944,178.185 210.251,178.278 209.812 C 178.371 209.372,178.549 208.949,178.674 208.872 C 178.799 208.794,178.901 208.543,178.900 208.314 C 178.898 207.961,180.475 203.294,181.125 201.727 C 181.238 201.456,181.620 200.345,181.974 199.260 C 182.328 198.174,182.723 197.064,182.852 196.792 C 182.980 196.521,183.367 195.410,183.710 194.324 C 184.053 193.239,184.436 192.128,184.561 191.857 C 184.686 191.585,185.093 190.419,185.465 189.266 C 185.837 188.112,186.221 187.057,186.318 186.922 C 186.415 186.786,186.576 186.286,186.675 185.811 C 186.774 185.336,186.939 184.837,187.041 184.701 C 187.144 184.565,187.361 184.010,187.524 183.467 C 187.686 182.924,187.916 182.258,188.034 181.986 C 188.152 181.715,188.538 180.605,188.892 179.519 C 189.245 178.433,189.634 177.323,189.755 177.051 C 189.876 176.780,190.266 175.669,190.621 174.584 C 190.976 173.498,191.332 172.443,191.414 172.239 C 191.823 171.215,193.272 167.073,193.486 166.317 C 193.621 165.842,193.834 165.231,193.959 164.960 C 194.258 164.315,194.907 162.472,195.219 161.382 C 195.355 160.907,195.626 160.168,195.821 159.741 C 196.016 159.313,196.176 158.813,196.177 158.630 C 196.178 158.447,196.334 157.999,196.524 157.635 C 196.714 157.271,196.945 156.625,197.039 156.200 C 197.132 155.774,197.364 155.128,197.554 154.764 C 197.744 154.400,197.900 153.953,197.901 153.770 C 197.902 153.586,198.060 153.087,198.253 152.659 C 198.446 152.231,198.895 150.993,199.251 149.907 C 199.607 148.822,200.000 147.711,200.123 147.440 C 200.246 147.168,200.794 145.614,201.340 143.985 C 201.886 142.357,202.622 140.247,202.975 139.297 C 203.328 138.347,203.713 137.236,203.830 136.829 C 203.947 136.422,204.266 135.478,204.538 134.732 C 206.134 130.355,207.098 127.573,207.337 126.650 C 207.487 126.073,207.702 125.601,207.815 125.601 C 207.927 125.601,208.020 125.412,208.020 125.179 C 208.020 124.702,209.299 120.856,209.521 120.666 C 209.601 120.598,209.786 120.099,209.933 119.556 C 210.079 119.013,210.828 116.792,211.596 114.621 C 212.364 112.449,213.093 110.339,213.217 109.932 C 213.340 109.525,213.545 108.970,213.672 108.698 C 213.799 108.427,214.192 107.316,214.546 106.231 C 214.900 105.145,215.292 104.035,215.418 103.763 C 215.543 103.492,215.756 102.881,215.889 102.406 C 216.190 101.338,216.840 99.488,217.145 98.828 C 217.271 98.556,217.483 97.946,217.617 97.471 C 217.918 96.403,218.567 94.553,218.872 93.893 C 218.998 93.621,219.210 93.010,219.344 92.535 C 219.645 91.468,220.294 89.617,220.600 88.957 C 220.725 88.686,220.937 88.075,221.071 87.600 C 221.204 87.125,221.747 85.515,222.278 84.022 C 222.808 82.529,223.546 80.419,223.917 79.334 C 224.288 78.248,224.749 77.010,224.942 76.582 C 225.135 76.154,225.294 75.655,225.295 75.472 C 225.295 75.289,225.451 74.841,225.641 74.477 C 225.831 74.113,226.066 73.446,226.162 72.996 C 226.258 72.546,226.424 72.067,226.530 71.931 C 226.636 71.795,226.833 71.295,226.968 70.820 C 227.103 70.345,227.293 69.762,227.390 69.525 C 227.558 69.114,224.018 69.094,155.054 69.102 L 82.542 69.111 80.568 72.597 M136.952 99.535 C 136.952 99.720,136.730 100.154,136.459 100.499 C 136.188 100.844,135.965 101.183,135.965 101.251 C 135.965 101.495,133.887 104.998,133.694 105.079 C 133.586 105.124,133.498 105.273,133.498 105.409 C 133.498 105.545,132.094 108.062,130.378 111.002 C 128.662 113.942,127.024 116.767,126.738 117.280 C 126.452 117.793,125.971 118.625,125.668 119.131 C 125.365 119.636,124.979 120.327,124.809 120.666 C 124.640 121.006,124.441 121.339,124.368 121.407 C 124.294 121.474,124.097 121.808,123.929 122.147 C 123.761 122.486,123.418 123.097,123.167 123.504 C 122.916 123.911,122.462 124.688,122.158 125.231 C 120.380 128.409,120.060 128.941,119.879 129.015 C 119.769 129.060,119.679 129.203,119.679 129.331 C 119.679 129.460,118.680 131.279,117.458 133.374 C 116.237 135.469,115.238 137.298,115.238 137.438 C 115.238 137.578,115.134 137.693,115.007 137.693 C 114.880 137.693,114.635 138.081,114.464 138.556 C 114.292 139.031,114.076 139.420,113.983 139.420 C 113.890 139.420,113.751 139.614,113.673 139.852 C 113.595 140.089,113.253 140.728,112.914 141.271 C 112.574 141.814,112.006 142.813,111.650 143.492 C 111.295 144.170,110.867 144.892,110.701 145.096 C 110.534 145.299,110.261 145.743,110.093 146.083 C 109.926 146.422,109.655 146.922,109.491 147.195 C 109.326 147.467,108.757 148.466,108.225 149.415 C 107.694 150.365,107.166 151.178,107.053 151.224 C 106.940 151.269,106.848 151.417,106.848 151.554 C 106.848 151.691,105.848 153.510,104.627 155.596 C 103.405 157.683,102.406 159.496,102.406 159.625 C 102.406 159.754,102.313 159.897,102.201 159.942 C 102.088 159.988,101.660 160.635,101.250 161.382 C 100.244 163.214,99.469 164.563,98.911 165.453 C 98.656 165.861,98.315 166.499,98.152 166.872 C 97.989 167.246,97.769 167.551,97.663 167.551 C 97.557 167.551,97.471 167.692,97.471 167.865 C 97.471 168.038,97.082 168.769,96.607 169.490 C 96.132 170.212,95.743 170.858,95.743 170.926 C 95.743 170.994,94.744 172.757,93.523 174.844 C 91.143 178.909,91.037 179.239,91.795 180.203 C 92.067 180.548,92.289 180.886,92.289 180.953 C 92.289 181.021,93.843 183.743,95.743 187.002 C 97.643 190.260,99.198 193.038,99.198 193.173 C 99.198 193.309,99.291 193.457,99.404 193.502 C 99.517 193.547,100.044 194.361,100.576 195.310 C 101.107 196.259,101.677 197.259,101.841 197.531 C 102.005 197.803,102.281 198.304,102.453 198.643 C 102.625 198.982,102.826 199.315,102.899 199.383 C 102.973 199.451,103.170 199.784,103.338 200.123 C 103.506 200.463,103.880 201.129,104.170 201.604 C 104.459 202.079,104.974 202.967,105.313 203.578 C 105.653 204.189,106.526 205.705,107.253 206.947 C 107.980 208.188,108.575 209.317,108.575 209.455 C 108.575 209.593,108.663 209.743,108.770 209.788 C 109.021 209.894,112.030 215.058,112.030 215.383 C 112.030 215.518,112.119 215.665,112.229 215.710 C 112.409 215.785,112.750 216.350,114.473 219.432 C 114.758 219.941,115.229 220.774,115.519 221.283 C 115.810 221.792,116.326 222.708,116.667 223.319 C 117.008 223.930,117.381 224.466,117.496 224.512 C 117.611 224.557,117.705 224.704,117.705 224.839 C 117.705 224.974,118.760 226.891,120.049 229.099 C 121.339 231.307,122.394 233.233,122.394 233.378 C 122.394 233.523,122.486 233.679,122.599 233.724 C 122.712 233.769,123.273 234.639,123.846 235.657 C 124.419 236.675,124.994 237.674,125.123 237.878 C 125.252 238.081,125.494 238.526,125.660 238.865 C 125.826 239.204,126.040 239.540,126.136 239.610 C 126.232 239.681,126.430 240.014,126.576 240.350 C 126.721 240.687,127.119 241.407,127.459 241.949 C 127.799 242.492,128.192 243.159,128.331 243.430 C 128.470 243.701,128.718 244.149,128.882 244.424 C 129.045 244.699,129.824 246.032,130.611 247.385 C 131.398 248.738,132.143 250.012,132.266 250.216 C 133.338 251.988,136.952 258.347,136.952 258.462 C 136.952 258.543,128.780 258.581,118.791 258.546 L 100.630 258.482 100.009 257.372 C 99.667 256.761,98.179 254.182,96.702 251.639 C 95.225 249.097,94.016 246.941,94.016 246.847 C 94.016 246.753,93.858 246.501,93.665 246.287 C 93.473 246.073,93.023 245.342,92.667 244.664 C 92.311 243.985,91.802 243.097,91.537 242.690 C 91.271 242.283,90.885 241.616,90.678 241.209 C 89.906 239.687,88.773 237.742,88.439 237.365 C 88.249 237.151,88.094 236.904,88.094 236.817 C 88.094 236.730,86.539 233.991,84.639 230.730 C 82.739 227.470,81.184 224.690,81.184 224.554 C 81.184 224.418,81.087 224.306,80.968 224.306 C 80.848 224.306,80.605 223.945,80.426 223.504 C 80.248 223.063,80.027 222.647,79.935 222.579 C 79.843 222.511,79.452 221.845,79.066 221.098 C 78.680 220.352,78.222 219.594,78.047 219.415 C 77.873 219.235,77.730 218.980,77.730 218.848 C 77.730 218.715,77.341 217.999,76.866 217.257 C 76.391 216.514,76.002 215.858,76.002 215.799 C 76.002 215.700,72.075 208.840,71.548 208.020 C 71.417 207.816,71.175 207.372,71.009 207.033 C 70.843 206.693,70.646 206.360,70.571 206.292 C 70.496 206.225,69.960 205.336,69.380 204.318 C 68.800 203.300,68.220 202.301,68.091 202.097 C 67.961 201.894,67.720 201.450,67.554 201.110 C 67.388 200.771,67.184 200.438,67.101 200.370 C 67.017 200.302,66.477 199.358,65.900 198.273 C 65.323 197.187,64.717 196.132,64.552 195.928 C 64.388 195.725,64.118 195.281,63.954 194.941 C 63.789 194.602,63.263 193.658,62.786 192.844 C 62.309 192.030,61.786 191.086,61.624 190.746 C 61.463 190.407,61.267 190.074,61.189 190.006 C 60.997 189.838,57.989 184.649,57.989 184.486 C 57.989 184.414,57.660 183.868,57.257 183.271 C 56.855 182.675,56.409 181.920,56.266 181.593 C 56.124 181.267,55.788 180.666,55.520 180.259 C 55.252 179.852,54.973 179.403,54.900 179.261 C 54.782 179.032,56.378 176.129,60.143 169.730 C 60.808 168.599,61.433 167.508,61.533 167.304 C 61.632 167.101,61.984 166.490,62.314 165.947 C 62.644 165.404,63.053 164.682,63.223 164.343 C 63.392 164.004,63.591 163.671,63.664 163.603 C 63.738 163.535,63.937 163.202,64.106 162.862 C 64.741 161.594,66.041 159.400,66.328 159.113 C 66.492 158.949,66.626 158.723,66.626 158.610 C 66.626 158.314,72.123 148.936,72.354 148.838 C 72.461 148.793,72.548 148.648,72.548 148.517 C 72.548 148.308,74.842 144.131,75.511 143.122 C 75.646 142.918,75.872 142.484,76.012 142.158 C 76.152 141.831,76.596 141.076,76.998 140.480 C 77.401 139.883,77.730 139.298,77.730 139.179 C 77.730 139.059,77.870 138.815,78.041 138.636 C 78.212 138.456,78.489 138.032,78.656 137.693 C 78.823 137.353,79.066 136.909,79.195 136.706 C 79.324 136.502,79.899 135.503,80.472 134.485 C 81.045 133.467,81.606 132.597,81.719 132.552 C 81.832 132.507,81.925 132.345,81.925 132.193 C 81.925 131.970,83.168 129.722,84.887 126.835 C 86.385 124.320,87.525 122.336,87.935 121.530 C 88.211 120.987,88.500 120.487,88.579 120.419 C 88.657 120.352,88.858 120.019,89.027 119.679 C 89.195 119.340,89.553 118.729,89.823 118.322 C 90.093 117.915,90.435 117.276,90.585 116.903 C 90.734 116.530,90.934 116.225,91.029 116.225 C 91.125 116.225,91.343 115.836,91.515 115.361 C 91.687 114.886,91.931 114.497,92.058 114.497 C 92.185 114.497,92.289 114.378,92.289 114.232 C 92.289 114.019,96.781 106.070,97.717 104.627 C 97.849 104.423,98.125 103.924,98.330 103.516 C 98.535 103.109,98.928 102.443,99.202 102.036 C 99.476 101.629,99.834 100.990,99.997 100.617 C 100.160 100.244,100.380 99.938,100.486 99.938 C 100.592 99.938,100.679 99.772,100.679 99.568 C 100.679 99.243,102.858 99.198,118.816 99.198 C 133.976 99.198,136.952 99.253,136.952 99.535 M248.609 112.955 C 248.381 113.600,248.081 114.405,247.941 114.744 C 247.802 115.083,247.372 116.305,246.986 117.458 C 245.901 120.699,245.534 121.735,245.279 122.270 C 245.150 122.542,244.764 123.652,244.421 124.738 C 244.078 125.824,243.695 126.934,243.569 127.205 C 243.443 127.477,243.009 128.698,242.603 129.920 C 241.213 134.102,239.565 138.803,239.215 139.581 C 239.022 140.008,238.865 140.491,238.865 140.654 C 238.865 140.816,238.707 141.299,238.514 141.727 C 238.321 142.155,237.872 143.393,237.516 144.479 C 237.160 145.564,236.769 146.675,236.648 146.946 C 236.527 147.218,236.138 148.328,235.785 149.414 C 235.431 150.500,235.044 151.610,234.925 151.882 C 234.806 152.153,234.420 153.263,234.066 154.349 C 233.712 155.435,233.321 156.545,233.198 156.817 C 233.074 157.088,232.684 158.199,232.330 159.284 C 231.976 160.370,231.586 161.481,231.463 161.752 C 231.339 162.023,231.129 162.634,230.995 163.109 C 230.694 164.177,230.045 166.027,229.740 166.687 C 229.614 166.959,229.402 167.569,229.268 168.044 C 228.917 169.290,228.285 171.068,228.037 171.507 C 227.920 171.715,227.743 172.250,227.645 172.696 C 227.547 173.142,227.312 173.804,227.122 174.168 C 226.932 174.532,226.775 174.997,226.774 175.200 C 226.772 175.404,226.615 175.869,226.425 176.233 C 226.235 176.597,226.003 177.243,225.910 177.668 C 225.816 178.094,225.585 178.740,225.395 179.104 C 225.205 179.468,225.049 179.915,225.048 180.098 C 225.047 180.281,224.888 180.781,224.695 181.209 C 224.502 181.637,224.057 182.875,223.706 183.961 C 223.355 185.046,222.967 186.157,222.843 186.428 C 222.719 186.700,222.156 188.310,221.592 190.006 C 221.027 191.703,220.463 193.313,220.339 193.584 C 220.215 193.856,219.833 194.966,219.490 196.052 C 219.147 197.138,218.758 198.248,218.626 198.519 C 218.494 198.791,218.106 199.901,217.763 200.987 C 217.420 202.073,217.045 203.183,216.931 203.455 C 216.496 204.484,215.674 206.766,214.706 209.624 C 214.155 211.252,213.255 213.862,212.705 215.423 C 211.819 217.940,211.411 219.110,209.871 223.566 C 209.660 224.176,209.388 224.898,209.266 225.170 C 209.145 225.441,208.756 226.552,208.403 227.637 C 208.049 228.723,207.661 229.833,207.541 230.105 C 207.421 230.376,206.861 231.986,206.298 233.683 C 205.734 235.379,205.174 236.990,205.054 237.261 C 204.933 237.532,204.545 238.643,204.191 239.729 C 203.837 240.814,203.449 241.925,203.328 242.196 C 203.057 242.809,201.678 246.744,201.211 248.242 C 201.020 248.853,200.762 249.574,200.637 249.846 C 200.512 250.117,200.120 251.228,199.766 252.313 C 199.412 253.399,199.020 254.510,198.894 254.781 C 198.769 255.052,198.559 255.663,198.427 256.138 C 198.296 256.613,197.948 257.613,197.655 258.359 C 197.361 259.105,196.971 260.216,196.788 260.827 C 196.304 262.437,195.710 264.101,195.464 264.536 C 195.347 264.744,195.168 265.299,195.068 265.770 C 194.967 266.241,194.806 266.737,194.709 266.872 C 194.613 267.008,194.392 267.619,194.219 268.229 C 194.045 268.840,193.817 269.451,193.711 269.587 C 193.605 269.722,193.437 270.222,193.337 270.697 C 193.238 271.172,193.078 271.672,192.982 271.808 C 192.886 271.943,192.665 272.554,192.492 273.165 C 192.318 273.775,192.089 274.386,191.983 274.522 C 191.877 274.658,191.712 275.137,191.615 275.587 C 191.519 276.037,191.285 276.704,191.095 277.068 C 190.905 277.432,190.748 277.896,190.746 278.100 C 190.745 278.304,190.588 278.768,190.398 279.132 C 190.208 279.496,189.976 280.142,189.883 280.568 C 189.789 280.993,189.557 281.639,189.368 282.003 C 189.178 282.367,189.021 282.832,189.019 283.035 C 189.017 283.239,188.861 283.703,188.671 284.067 C 188.481 284.431,188.245 285.094,188.147 285.540 C 188.049 285.986,187.885 286.520,187.783 286.728 C 187.427 287.451,186.574 289.826,186.406 290.561 C 186.313 290.969,186.154 291.413,186.052 291.548 C 185.951 291.684,185.789 292.164,185.693 292.614 C 185.597 293.064,185.363 293.730,185.173 294.094 C 184.983 294.458,184.827 294.906,184.826 295.089 C 184.825 295.272,184.666 295.772,184.474 296.200 C 184.281 296.627,183.831 297.866,183.475 298.951 C 183.119 300.037,182.722 301.147,182.594 301.419 C 182.465 301.690,182.083 302.745,181.746 303.763 C 181.409 304.781,180.917 306.225,180.654 306.971 C 179.584 310.002,177.361 316.354,176.681 318.322 C 176.282 319.476,175.505 321.696,174.954 323.257 C 174.402 324.818,173.617 327.083,173.208 328.291 C 172.799 329.499,172.354 330.692,172.220 330.944 C 171.982 331.388,173.997 331.400,244.473 331.400 L 316.971 331.400 319.929 326.302 C 321.556 323.497,322.976 321.027,323.084 320.811 C 323.192 320.596,323.551 319.975,323.881 319.432 C 324.211 318.890,324.620 318.168,324.790 317.829 C 324.959 317.489,325.156 317.156,325.226 317.088 C 325.480 316.844,326.247 315.471,326.501 314.806 C 326.644 314.432,326.860 314.127,326.983 314.127 C 327.105 314.127,327.205 314.003,327.205 313.851 C 327.205 313.699,327.966 312.283,328.897 310.705 C 329.827 309.126,331.287 306.613,332.142 305.120 C 332.997 303.627,333.765 302.350,333.849 302.283 C 333.933 302.215,334.135 301.882,334.298 301.542 C 334.773 300.557,335.992 298.380,336.263 298.034 C 336.399 297.860,336.930 296.940,337.442 295.990 C 338.705 293.648,339.614 292.067,339.783 291.919 C 339.861 291.851,340.059 291.518,340.225 291.178 C 340.391 290.839,340.635 290.395,340.767 290.191 C 341.430 289.170,347.933 277.817,347.933 277.680 C 347.933 277.593,348.088 277.347,348.276 277.132 C 348.464 276.918,348.936 276.151,349.325 275.428 C 349.713 274.704,350.253 273.735,350.524 273.274 C 350.796 272.813,351.338 271.851,351.728 271.135 C 352.119 270.419,352.514 269.778,352.606 269.710 C 352.698 269.642,352.919 269.226,353.098 268.785 C 353.276 268.344,353.520 267.983,353.639 267.983 C 353.758 267.983,353.856 267.869,353.856 267.729 C 353.856 267.523,360.153 256.465,361.018 255.151 C 361.152 254.948,361.399 254.503,361.566 254.164 C 361.733 253.825,362.010 253.400,362.181 253.221 C 362.352 253.042,362.492 252.744,362.492 252.560 C 362.492 252.376,362.632 252.079,362.804 251.899 C 362.975 251.720,363.254 251.295,363.423 250.956 C 363.593 250.617,363.943 250.006,364.202 249.599 C 364.460 249.192,365.037 248.165,365.483 247.316 C 365.930 246.468,366.383 245.774,366.491 245.774 C 366.599 245.774,366.687 245.647,366.687 245.492 C 366.687 245.337,367.909 243.127,369.402 240.581 C 370.895 238.036,372.116 235.831,372.116 235.682 C 372.116 235.532,372.214 235.410,372.334 235.410 C 372.454 235.410,372.616 235.216,372.694 234.978 C 372.771 234.741,373.117 234.102,373.461 233.560 C 373.805 233.017,374.224 232.295,374.392 231.956 C 374.560 231.616,374.761 231.283,374.839 231.215 C 374.918 231.147,375.128 230.731,375.306 230.290 C 375.485 229.849,375.704 229.488,375.793 229.488 C 375.883 229.488,376.087 229.183,376.248 228.809 C 376.408 228.436,376.649 227.964,376.783 227.761 C 378.934 224.483,380.519 221.274,380.174 220.893 C 379.968 220.666,379.680 220.203,379.533 219.864 C 379.387 219.525,378.986 218.803,378.642 218.260 C 378.298 217.717,377.953 217.079,377.876 216.841 C 377.798 216.604,377.648 216.410,377.543 216.410 C 377.438 216.410,377.284 216.140,377.201 215.810 C 377.118 215.480,376.911 215.064,376.740 214.885 C 376.568 214.705,376.292 214.281,376.125 213.942 C 375.958 213.603,375.713 213.159,375.582 212.955 C 375.450 212.751,374.165 210.531,372.726 208.020 C 369.697 202.734,369.962 203.189,368.668 201.058 C 368.116 200.147,367.383 198.870,367.041 198.220 C 366.699 197.570,366.186 196.650,365.901 196.175 C 365.615 195.700,365.046 194.701,364.637 193.954 C 364.227 193.208,363.824 192.542,363.742 192.474 C 363.660 192.406,363.457 192.073,363.291 191.733 C 363.125 191.394,362.879 190.950,362.744 190.746 C 362.610 190.543,360.942 187.656,359.038 184.331 C 357.134 181.006,355.466 178.118,355.331 177.915 C 355.196 177.711,354.950 177.267,354.784 176.928 C 354.618 176.589,354.423 176.255,354.349 176.188 C 354.276 176.120,354.077 175.787,353.907 175.447 C 353.738 175.108,353.329 174.386,352.999 173.843 C 352.669 173.300,352.316 172.690,352.215 172.486 C 352.113 172.283,350.498 169.482,348.625 166.262 C 346.752 163.042,345.219 160.294,345.219 160.154 C 345.219 160.015,345.131 159.901,345.024 159.901 C 344.916 159.901,344.518 159.318,344.139 158.606 C 343.759 157.893,343.122 156.755,342.723 156.076 C 342.324 155.398,341.932 154.648,341.852 154.411 C 341.772 154.173,341.617 153.979,341.508 153.979 C 341.399 153.979,341.181 153.590,341.024 153.115 C 340.867 152.640,340.661 152.252,340.565 152.252 C 340.470 152.252,340.261 151.946,340.100 151.573 C 339.940 151.200,339.695 150.728,339.556 150.524 C 338.845 149.481,335.842 144.110,335.842 143.881 C 335.842 143.735,335.754 143.615,335.647 143.615 C 335.539 143.615,335.140 143.032,334.760 142.320 C 334.379 141.607,333.802 140.580,333.477 140.037 C 333.151 139.494,332.744 138.772,332.572 138.433 C 332.399 138.094,331.949 137.339,331.572 136.755 C 331.194 136.172,330.776 135.450,330.643 135.151 C 330.230 134.225,328.803 131.788,328.490 131.476 C 328.326 131.312,328.192 131.085,328.192 130.970 C 328.192 130.855,327.027 128.773,325.601 126.342 C 324.176 123.911,323.010 121.806,323.010 121.664 C 323.010 121.523,322.913 121.407,322.794 121.407 C 322.674 121.407,322.431 121.046,322.252 120.605 C 322.074 120.163,321.853 119.747,321.761 119.679 C 321.669 119.611,321.274 118.970,320.883 118.254 C 320.492 117.539,319.925 116.539,319.622 116.034 C 319.320 115.528,318.933 114.837,318.764 114.497 C 318.594 114.158,318.386 113.825,318.302 113.757 C 318.217 113.689,317.953 113.217,317.713 112.708 L 317.279 111.783 283.151 111.783 L 249.023 111.783 248.609 112.955 M301.081 145.466 C 302.272 147.502,303.251 149.306,303.258 149.476 C 303.264 149.645,303.357 149.784,303.465 149.784 C 303.572 149.784,303.963 150.367,304.334 151.080 C 304.704 151.792,305.343 152.930,305.753 153.609 C 306.164 154.287,306.563 155.037,306.641 155.275 C 306.718 155.512,306.868 155.706,306.973 155.706 C 307.078 155.706,307.232 155.976,307.315 156.306 C 307.398 156.636,307.604 157.057,307.773 157.241 C 308.091 157.587,308.311 157.948,309.380 159.882 C 310.134 161.247,315.039 169.744,315.374 170.265 C 315.504 170.469,315.747 170.913,315.913 171.252 C 316.079 171.592,316.283 171.925,316.367 171.993 C 316.509 172.108,316.711 172.468,317.688 174.337 C 317.900 174.744,318.292 175.410,318.557 175.817 C 318.823 176.225,319.305 177.057,319.629 177.668 C 319.953 178.279,321.401 180.799,322.848 183.268 C 324.294 185.738,325.478 187.875,325.478 188.019 C 325.478 188.162,325.576 188.279,325.695 188.279 C 325.814 188.279,326.058 188.640,326.236 189.081 C 326.415 189.522,326.632 189.938,326.719 190.006 C 326.806 190.074,327.213 190.740,327.622 191.487 C 328.032 192.233,328.604 193.233,328.894 193.708 C 329.183 194.183,329.540 194.847,329.685 195.183 C 329.831 195.520,330.029 195.853,330.125 195.923 C 330.221 195.994,330.438 196.329,330.606 196.669 C 330.774 197.008,331.132 197.619,331.400 198.026 C 331.669 198.433,331.963 198.933,332.053 199.136 C 332.144 199.340,333.033 200.914,334.030 202.635 C 335.027 204.355,335.842 205.872,335.842 206.007 C 335.842 206.141,335.927 206.288,336.032 206.334 C 336.226 206.418,338.310 209.851,338.310 210.086 C 338.310 210.158,338.629 210.693,339.020 211.277 C 339.411 211.861,340.044 212.949,340.427 213.695 C 340.809 214.442,341.204 215.110,341.305 215.181 C 341.405 215.251,341.611 215.585,341.762 215.921 C 342.053 216.566,342.289 216.997,343.830 219.701 L 344.786 221.377 344.348 222.348 C 344.107 222.882,343.816 223.319,343.701 223.319 C 343.586 223.319,343.492 223.441,343.492 223.590 C 343.492 223.740,342.270 225.944,340.777 228.490 C 339.284 231.035,338.063 233.245,338.063 233.401 C 338.063 233.556,337.965 233.683,337.845 233.683 C 337.725 233.683,337.563 233.877,337.485 234.115 C 337.407 234.352,337.062 234.991,336.718 235.534 C 336.374 236.076,335.957 236.798,335.793 237.138 C 335.628 237.477,335.183 238.219,334.804 238.786 C 334.425 239.353,334.115 239.884,334.115 239.966 C 334.115 240.048,332.744 242.471,331.068 245.351 C 328.404 249.929,327.670 251.208,326.359 253.547 C 326.207 253.819,325.799 254.485,325.454 255.028 C 325.108 255.571,324.752 256.181,324.663 256.385 C 324.574 256.589,324.226 257.199,323.889 257.742 C 323.553 258.285,322.998 259.261,322.656 259.910 C 321.635 261.851,319.949 264.646,319.746 264.734 C 319.641 264.779,319.556 264.930,319.556 265.070 C 319.556 265.209,318.542 267.057,317.302 269.176 C 316.063 271.294,314.814 273.450,314.526 273.967 C 314.239 274.483,313.756 275.319,313.453 275.824 C 313.151 276.329,312.764 277.020,312.595 277.360 C 312.425 277.699,312.226 278.032,312.153 278.100 C 312.080 278.168,311.882 278.501,311.714 278.840 C 311.545 279.180,311.188 279.790,310.920 280.197 C 310.652 280.605,310.330 281.169,310.204 281.451 C 310.079 281.734,308.429 284.621,306.539 287.867 C 304.649 291.113,303.028 293.936,302.937 294.139 C 302.845 294.343,302.556 294.843,302.294 295.250 C 302.031 295.657,301.644 296.295,301.433 296.669 C 300.839 297.718,300.346 298.595,299.594 299.938 L 298.903 301.172 280.825 301.235 L 262.746 301.299 262.912 300.638 C 263.003 300.275,263.293 299.704,263.556 299.369 C 263.819 299.035,264.035 298.658,264.035 298.531 C 264.035 298.404,264.345 297.836,264.724 297.268 C 265.103 296.701,265.552 295.959,265.721 295.620 C 265.890 295.281,266.163 294.780,266.327 294.508 C 266.491 294.236,267.060 293.236,267.592 292.287 C 268.124 291.338,268.651 290.524,268.764 290.479 C 268.877 290.434,268.970 290.292,268.970 290.163 C 268.970 290.034,269.969 288.215,271.191 286.120 C 272.412 284.025,273.411 282.196,273.411 282.056 C 273.411 281.916,273.499 281.801,273.607 281.801 C 273.714 281.801,274.105 281.218,274.476 280.506 C 274.847 279.793,275.425 278.766,275.760 278.223 C 276.095 277.680,276.504 276.959,276.669 276.619 C 276.833 276.280,277.278 275.538,277.657 274.971 C 278.037 274.404,278.347 273.873,278.347 273.792 C 278.347 273.673,284.655 262.669,285.496 261.320 C 285.761 260.896,287.087 258.621,287.762 257.434 C 288.923 255.389,289.306 254.729,289.731 254.041 C 289.982 253.634,290.262 253.134,290.354 252.930 C 290.770 252.007,295.994 243.174,296.166 243.101 C 296.273 243.056,296.360 242.908,296.360 242.772 C 296.360 242.637,297.193 241.094,298.211 239.342 C 299.229 237.591,300.062 236.046,300.062 235.908 C 300.062 235.770,300.162 235.657,300.284 235.657 C 300.407 235.657,300.629 235.352,300.779 234.978 C 300.928 234.605,301.272 233.967,301.544 233.560 C 301.815 233.152,302.205 232.486,302.410 232.079 C 302.615 231.672,302.887 231.172,303.013 230.969 C 303.215 230.643,304.388 228.628,307.160 223.846 C 308.544 221.460,308.580 221.360,308.253 220.833 C 308.091 220.572,307.819 220.108,307.650 219.803 C 307.480 219.497,307.279 219.192,307.204 219.124 C 307.128 219.056,306.920 218.640,306.742 218.199 C 306.564 217.758,306.320 217.397,306.201 217.397 C 306.082 217.397,305.984 217.290,305.984 217.159 C 305.984 217.028,304.207 213.870,302.036 210.140 C 299.864 206.411,298.088 203.242,298.088 203.098 C 298.088 202.955,298.004 202.837,297.903 202.836 C 297.801 202.835,297.592 202.585,297.439 202.281 C 296.813 201.038,296.070 199.711,295.608 199.013 C 295.338 198.606,294.984 197.967,294.821 197.594 C 294.658 197.221,294.438 196.915,294.332 196.915 C 294.226 196.915,294.138 196.777,294.137 196.607 C 294.136 196.437,293.692 195.600,293.150 194.746 C 292.608 193.893,292.165 193.146,292.165 193.088 C 292.165 193.029,290.611 190.322,288.711 187.071 C 286.811 183.820,285.256 181.041,285.256 180.895 C 285.256 180.749,285.158 180.629,285.039 180.629 C 284.920 180.629,284.676 180.268,284.498 179.827 C 284.320 179.386,284.098 178.970,284.006 178.902 C 283.914 178.834,283.525 178.168,283.141 177.421 C 282.757 176.675,282.374 176.009,282.288 175.941 C 282.203 175.873,281.965 175.484,281.760 175.077 C 281.555 174.670,280.703 173.156,279.867 171.712 C 279.031 170.268,278.347 168.963,278.347 168.812 C 278.347 168.661,278.232 168.538,278.092 168.538 C 277.952 168.538,277.765 168.344,277.676 168.106 C 277.532 167.722,272.774 159.356,272.167 158.421 C 272.035 158.217,271.791 157.773,271.624 157.434 C 271.456 157.094,271.180 156.670,271.008 156.491 C 270.837 156.311,270.697 156.006,270.697 155.812 C 270.697 155.618,270.595 155.460,270.469 155.460 C 270.344 155.460,270.114 155.071,269.957 154.596 C 269.800 154.121,269.580 153.732,269.468 153.732 C 269.356 153.732,269.142 153.427,268.991 153.054 C 268.840 152.680,268.469 151.961,268.165 151.456 C 267.861 150.950,267.293 149.950,266.902 149.235 C 266.512 148.519,266.121 147.878,266.034 147.810 C 265.946 147.742,265.739 147.409,265.574 147.070 C 265.408 146.730,265.166 146.286,265.037 146.083 C 264.159 144.699,262.801 142.179,262.801 141.933 C 262.801 141.706,266.957 141.652,280.859 141.701 L 298.917 141.764 301.081 145.466 " stroke="none" fill="#cc3434" fill-rule="evenodd"></path><path id="path1" d="M0.000 199.877 L 0.000 399.753 199.877 399.753 L 399.753 399.753 399.753 199.877 L 399.753 0.000 199.877 0.000 L 0.000 0.000 0.000 199.877 M227.658 69.636 C 227.567 70.206,227.401 70.789,227.288 70.932 C 227.176 71.074,226.951 71.635,226.789 72.178 C 226.626 72.721,226.395 73.387,226.276 73.658 C 226.157 73.930,225.751 75.096,225.374 76.249 C 224.997 77.403,224.602 78.384,224.497 78.429 C 224.392 78.474,224.306 78.688,224.306 78.904 C 224.306 79.290,223.262 82.561,222.830 83.529 C 222.708 83.800,222.322 84.911,221.971 85.996 C 221.619 87.082,221.238 88.141,221.123 88.349 C 221.008 88.557,220.832 89.112,220.731 89.582 C 220.630 90.053,220.461 90.549,220.355 90.685 C 220.249 90.820,220.020 91.431,219.847 92.042 C 219.673 92.653,219.452 93.263,219.356 93.399 C 219.260 93.535,219.100 94.035,219.001 94.510 C 218.901 94.985,218.733 95.484,218.627 95.620 C 218.521 95.756,218.293 96.366,218.119 96.977 C 217.946 97.588,217.722 98.199,217.622 98.334 C 217.522 98.470,217.363 98.998,217.268 99.506 C 217.173 100.015,217.009 100.432,216.903 100.432 C 216.798 100.432,216.634 100.848,216.540 101.357 C 216.446 101.866,216.219 102.616,216.036 103.023 C 215.854 103.430,215.402 104.707,215.033 105.861 C 214.664 107.014,214.278 108.069,214.174 108.205 C 214.071 108.341,213.908 108.868,213.813 109.377 C 213.718 109.886,213.542 110.302,213.421 110.302 C 213.300 110.302,213.202 110.468,213.202 110.671 C 213.202 111.075,212.348 113.688,211.831 114.867 C 211.652 115.275,211.395 115.996,211.259 116.471 C 210.946 117.562,210.297 119.404,209.999 120.049 C 209.873 120.321,209.661 120.932,209.527 121.407 C 209.249 122.394,208.602 124.256,208.285 124.985 C 208.167 125.256,207.824 126.255,207.524 127.205 C 207.224 128.155,206.835 129.266,206.659 129.673 C 206.484 130.080,206.054 131.302,205.703 132.387 C 205.088 134.293,203.600 138.587,202.582 141.394 C 202.311 142.141,201.798 143.640,201.442 144.725 C 201.085 145.811,200.715 146.811,200.619 146.946 C 200.524 147.082,200.136 148.192,199.758 149.414 C 199.379 150.635,198.991 151.746,198.894 151.882 C 198.798 152.017,198.569 152.684,198.386 153.362 C 198.203 154.041,197.909 154.874,197.733 155.213 C 197.556 155.552,197.411 155.970,197.411 156.142 C 197.410 156.313,197.304 156.646,197.175 156.882 C 197.047 157.117,196.639 158.254,196.270 159.408 C 195.901 160.561,195.519 161.616,195.422 161.752 C 195.325 161.888,195.166 162.367,195.070 162.817 C 194.974 163.268,194.739 163.934,194.550 164.298 C 194.360 164.662,194.203 165.110,194.203 165.293 C 194.202 165.476,194.043 165.976,193.850 166.403 C 193.658 166.831,193.208 168.069,192.852 169.155 C 192.496 170.241,192.110 171.351,191.995 171.622 C 191.879 171.894,191.488 173.004,191.125 174.090 C 190.763 175.176,190.377 176.234,190.267 176.442 C 190.158 176.650,189.986 177.206,189.886 177.676 C 189.785 178.147,189.612 178.644,189.502 178.782 C 189.392 178.919,189.170 179.558,189.008 180.201 C 188.846 180.844,188.630 181.370,188.528 181.370 C 188.426 181.370,188.273 181.799,188.189 182.324 C 188.105 182.849,187.870 183.598,187.666 183.990 C 187.462 184.381,187.294 184.851,187.293 185.034 C 187.292 185.217,187.136 185.716,186.945 186.144 C 186.755 186.572,186.307 187.810,185.951 188.896 C 185.595 189.981,185.201 191.092,185.076 191.363 C 184.950 191.635,184.738 192.246,184.604 192.721 C 184.244 193.998,183.619 195.749,183.359 196.207 C 183.233 196.427,183.055 197.010,182.963 197.502 C 182.871 197.994,182.709 198.396,182.603 198.396 C 182.498 198.396,182.334 198.812,182.240 199.321 C 182.146 199.830,181.920 200.580,181.739 200.987 C 181.557 201.394,181.117 202.616,180.761 203.701 C 180.405 204.787,180.015 205.898,179.896 206.169 C 179.776 206.440,179.198 208.106,178.611 209.870 C 178.025 211.635,177.461 213.115,177.360 213.161 C 177.258 213.206,177.175 213.424,177.175 213.644 C 177.175 214.200,175.860 217.995,175.632 218.096 C 175.531 218.141,175.447 218.321,175.447 218.496 C 175.447 218.821,174.370 222.305,173.994 223.196 C 173.566 224.210,172.767 226.425,172.614 227.020 C 172.526 227.360,172.362 227.859,172.248 228.131 C 172.134 228.402,171.792 229.346,171.487 230.228 C 171.183 231.110,170.798 232.165,170.634 232.572 C 170.469 232.980,170.021 234.312,169.640 235.534 C 169.258 236.755,168.869 237.866,168.775 238.001 C 168.682 238.137,168.296 239.247,167.919 240.469 C 167.541 241.690,167.138 242.795,167.022 242.924 C 166.906 243.053,166.810 243.331,166.809 243.541 C 166.808 243.751,166.663 244.201,166.487 244.540 C 166.311 244.880,166.017 245.713,165.835 246.391 C 165.653 247.070,165.409 247.730,165.294 247.859 C 165.178 247.988,165.083 248.266,165.082 248.476 C 165.081 248.687,164.936 249.136,164.760 249.476 C 164.583 249.815,164.290 250.648,164.108 251.326 C 163.926 252.005,163.682 252.666,163.566 252.795 C 163.451 252.924,163.355 253.201,163.354 253.411 C 163.354 253.622,163.209 254.072,163.032 254.411 C 162.856 254.750,162.563 255.583,162.381 256.262 C 162.198 256.940,161.955 257.601,161.839 257.730 C 161.723 257.859,161.629 258.120,161.629 258.309 C 161.629 258.499,161.471 259.005,161.278 259.432 C 161.085 259.860,160.638 261.098,160.285 262.184 C 159.931 263.270,159.548 264.328,159.433 264.536 C 159.318 264.744,159.141 265.299,159.041 265.770 C 158.940 266.241,158.767 266.738,158.657 266.876 C 158.547 267.013,158.320 267.679,158.152 268.356 C 157.984 269.033,157.782 269.642,157.702 269.710 C 157.622 269.778,157.289 270.666,156.962 271.684 C 156.635 272.702,156.226 273.868,156.053 274.275 C 155.880 274.682,155.627 275.404,155.490 275.879 C 155.124 277.157,154.499 278.911,154.255 279.342 C 154.138 279.550,153.962 280.085,153.864 280.531 C 153.766 280.976,153.530 281.639,153.340 282.003 C 153.150 282.367,152.994 282.832,152.992 283.035 C 152.990 283.239,152.834 283.703,152.644 284.067 C 152.454 284.431,152.219 285.098,152.123 285.548 C 152.027 285.998,151.865 286.477,151.764 286.613 C 151.662 286.749,151.500 287.192,151.402 287.599 C 151.305 288.005,151.109 288.477,150.968 288.648 C 150.764 288.893,143.661 288.957,116.561 288.957 L 82.412 288.957 81.592 287.662 C 81.141 286.949,80.449 285.756,80.053 285.009 C 79.657 284.263,79.269 283.597,79.191 283.529 C 79.112 283.461,78.724 282.795,78.327 282.048 C 77.931 281.302,77.540 280.635,77.459 280.568 C 77.322 280.452,77.092 280.042,76.144 278.223 C 75.932 277.816,75.476 277.039,75.130 276.496 C 74.784 275.953,74.437 275.315,74.359 275.077 C 74.281 274.840,74.119 274.645,74.000 274.645 C 73.880 274.645,73.782 274.533,73.782 274.395 C 73.782 274.183,72.876 272.510,72.046 271.191 C 70.832 269.260,64.898 258.828,64.898 258.624 C 64.898 258.478,64.815 258.358,64.713 258.357 C 64.611 258.356,64.403 258.106,64.250 257.802 C 63.675 256.660,62.891 255.243,62.306 254.287 C 61.974 253.745,61.398 252.717,61.028 252.005 C 60.657 251.292,60.266 250.709,60.158 250.709 C 60.051 250.709,59.963 250.593,59.963 250.452 C 59.963 250.310,58.792 248.197,57.362 245.757 C 55.931 243.316,54.690 241.128,54.604 240.894 C 54.517 240.660,54.374 240.413,54.284 240.345 C 54.195 240.278,53.787 239.611,53.377 238.865 C 52.157 236.640,51.539 235.569,51.100 234.917 C 50.872 234.577,50.551 234.022,50.387 233.683 C 50.223 233.344,49.852 232.677,49.563 232.202 C 49.273 231.727,48.759 230.839,48.419 230.228 C 48.079 229.618,46.428 226.775,44.752 223.911 C 43.075 221.047,41.703 218.577,41.703 218.421 C 41.703 218.265,41.619 218.136,41.518 218.135 C 41.416 218.134,41.207 217.884,41.054 217.580 C 40.450 216.379,39.686 215.006,39.100 214.065 C 38.761 213.523,38.411 212.912,38.322 212.708 C 38.233 212.505,38.095 212.283,38.014 212.215 C 37.934 212.147,37.732 211.814,37.566 211.474 C 37.400 211.135,37.157 210.691,37.026 210.487 C 36.895 210.284,35.224 207.397,33.313 204.072 C 31.401 200.746,29.730 197.859,29.599 197.656 C 29.468 197.452,29.225 197.008,29.059 196.669 C 28.893 196.329,28.698 195.996,28.624 195.928 C 28.551 195.861,28.349 195.527,28.175 195.188 C 27.681 194.227,26.931 192.915,26.409 192.104 C 26.147 191.696,25.641 190.808,25.285 190.130 C 24.929 189.451,24.479 188.720,24.286 188.506 C 24.094 188.292,23.936 188.012,23.936 187.884 C 23.936 187.756,23.556 187.073,23.091 186.368 C 22.626 185.662,22.167 184.832,22.071 184.523 C 21.974 184.214,21.823 183.905,21.735 183.837 C 21.454 183.620,19.494 180.183,19.494 179.908 C 19.494 179.762,19.383 179.642,19.247 179.642 C 18.688 179.642,19.272 177.753,20.010 177.175 C 20.097 177.107,20.247 176.798,20.343 176.489 C 20.440 176.180,20.899 175.349,21.364 174.644 C 21.828 173.938,22.209 173.228,22.209 173.065 C 22.209 172.902,22.347 172.617,22.517 172.432 C 22.906 172.007,23.331 171.335,23.808 170.389 C 24.014 169.981,24.395 169.315,24.655 168.908 C 24.915 168.501,25.494 167.474,25.940 166.626 C 26.386 165.777,26.840 165.083,26.948 165.083 C 27.055 165.083,27.144 164.967,27.144 164.825 C 27.144 164.682,28.199 162.747,29.488 160.525 C 30.777 158.302,31.832 156.364,31.832 156.218 C 31.832 156.072,31.925 155.953,32.039 155.953 C 32.152 155.953,32.550 155.370,32.924 154.658 C 33.297 153.945,33.866 152.918,34.188 152.375 C 34.510 151.832,34.900 151.083,35.055 150.709 C 35.209 150.336,35.435 150.031,35.558 150.031 C 35.680 150.031,35.780 149.872,35.780 149.678 C 35.780 149.484,35.920 149.179,36.092 149.000 C 36.263 148.820,36.546 148.396,36.721 148.057 C 37.453 146.635,37.839 145.952,37.978 145.836 C 38.058 145.768,38.454 145.074,38.856 144.294 C 39.259 143.513,39.675 142.875,39.782 142.875 C 39.888 142.875,39.975 142.744,39.975 142.583 C 39.975 142.346,42.424 138.036,45.137 133.498 C 45.421 133.023,45.824 132.301,46.032 131.894 C 46.241 131.487,46.679 130.709,47.006 130.167 C 47.334 129.624,47.680 129.013,47.775 128.809 C 48.058 128.207,49.941 124.995,50.089 124.861 C 50.165 124.793,50.362 124.460,50.528 124.121 C 50.694 123.782,50.935 123.337,51.065 123.134 C 51.195 122.930,52.090 121.376,53.054 119.679 C 54.018 117.983,54.909 116.428,55.035 116.225 C 55.161 116.021,55.683 115.133,56.195 114.252 C 56.706 113.371,57.236 112.465,57.372 112.239 C 57.508 112.013,57.992 111.124,58.447 110.263 C 58.903 109.403,59.349 108.643,59.439 108.575 C 59.529 108.507,59.745 108.174,59.919 107.835 C 60.431 106.836,61.163 105.560,61.829 104.503 C 62.172 103.961,62.515 103.322,62.593 103.085 C 62.671 102.847,62.833 102.653,62.953 102.653 C 63.073 102.653,63.171 102.532,63.171 102.384 C 63.171 102.169,66.917 95.501,67.872 94.016 C 68.003 93.812,68.246 93.368,68.413 93.029 C 68.581 92.690,68.857 92.266,69.028 92.086 C 69.199 91.907,69.407 91.491,69.490 91.161 C 69.572 90.831,69.726 90.561,69.831 90.561 C 69.937 90.561,70.093 90.367,70.179 90.130 C 70.265 89.892,70.669 89.143,71.078 88.464 C 71.487 87.785,71.886 87.036,71.966 86.798 C 72.046 86.561,72.198 86.366,72.303 86.366 C 72.408 86.366,72.562 86.097,72.645 85.767 C 72.728 85.437,72.935 85.021,73.106 84.841 C 73.277 84.662,73.554 84.238,73.721 83.899 C 73.888 83.560,74.134 83.115,74.267 82.912 C 74.543 82.490,78.323 75.952,79.261 74.275 C 79.602 73.664,80.122 72.776,80.415 72.301 C 80.708 71.826,81.081 71.132,81.244 70.759 C 81.406 70.386,81.626 70.080,81.732 70.080 C 81.838 70.080,81.925 69.950,81.925 69.791 C 81.925 68.506,76.145 68.600,155.283 68.600 L 227.824 68.600 227.658 69.636 M99.917 101.481 C 98.276 104.329,97.877 104.989,97.716 105.120 C 97.634 105.188,97.420 105.605,97.242 106.046 C 97.063 106.487,96.820 106.848,96.700 106.848 C 96.581 106.848,96.484 106.970,96.484 107.119 C 96.484 107.268,95.873 108.428,95.126 109.696 C 94.380 110.964,93.769 112.058,93.769 112.127 C 93.769 112.196,93.450 112.729,93.060 113.313 C 92.670 113.896,92.274 114.624,92.180 114.929 C 92.086 115.234,91.914 115.484,91.798 115.484 C 91.682 115.484,91.458 115.873,91.302 116.348 C 91.145 116.823,90.914 117.212,90.789 117.212 C 90.664 117.212,90.561 117.331,90.561 117.477 C 90.561 117.816,87.562 122.983,87.302 123.093 C 87.194 123.138,87.107 123.285,87.107 123.419 C 87.107 123.554,86.274 125.091,85.256 126.835 C 84.238 128.580,83.405 130.065,83.405 130.136 C 83.405 130.207,83.084 130.743,82.692 131.326 C 81.771 132.697,80.516 134.915,80.172 135.780 C 80.024 136.154,79.813 136.459,79.704 136.459 C 79.595 136.459,79.379 136.764,79.225 137.138 C 78.850 138.043,78.186 139.267,77.986 139.420 C 77.898 139.488,77.679 139.904,77.501 140.345 C 77.322 140.787,77.079 141.147,76.960 141.147 C 76.840 141.147,76.743 141.267,76.743 141.413 C 76.743 141.762,74.746 145.195,74.481 145.301 C 74.368 145.346,74.275 145.496,74.275 145.634 C 74.275 145.772,73.664 146.923,72.918 148.191 C 72.171 149.459,71.561 150.578,71.561 150.676 C 71.561 150.775,71.405 151.031,71.215 151.245 C 70.879 151.625,69.647 153.730,69.037 154.966 C 68.870 155.305,68.673 155.638,68.600 155.706 C 68.526 155.774,68.329 156.107,68.161 156.447 C 67.993 156.786,67.650 157.397,67.398 157.804 C 66.529 159.212,65.922 160.278,65.114 161.814 C 64.668 162.662,64.215 163.356,64.107 163.356 C 63.999 163.356,63.911 163.515,63.911 163.708 C 63.911 163.902,63.772 164.212,63.603 164.396 C 63.433 164.580,62.965 165.365,62.563 166.141 C 62.160 166.916,61.766 167.551,61.687 167.551 C 61.608 167.551,61.402 167.940,61.230 168.415 C 61.059 168.890,60.814 169.278,60.687 169.278 C 60.560 169.278,60.457 169.398,60.457 169.544 C 60.457 169.773,57.454 175.145,56.743 176.188 C 56.604 176.391,56.359 176.863,56.199 177.236 C 56.038 177.610,55.829 177.915,55.734 177.915 C 55.248 177.915,55.259 179.421,55.749 180.044 C 56.031 180.402,56.262 180.847,56.262 181.033 C 56.262 181.218,56.365 181.370,56.492 181.370 C 56.619 181.370,56.864 181.758,57.035 182.233 C 57.207 182.708,57.426 183.097,57.521 183.097 C 57.616 183.097,57.816 183.402,57.965 183.775 C 58.115 184.149,58.458 184.787,58.727 185.194 C 58.997 185.601,59.292 186.101,59.383 186.305 C 59.475 186.508,60.142 187.691,60.867 188.933 C 61.591 190.175,62.184 191.313,62.184 191.462 C 62.184 191.611,62.281 191.733,62.401 191.733 C 62.520 191.733,62.763 192.094,62.942 192.535 C 63.120 192.977,63.338 193.393,63.426 193.461 C 63.700 193.672,69.093 203.061,69.093 203.327 C 69.093 203.465,69.176 203.578,69.278 203.579 C 69.380 203.579,69.796 204.218,70.204 204.998 C 70.611 205.778,71.005 206.471,71.080 206.539 C 71.155 206.607,71.528 207.273,71.909 208.020 C 72.291 208.766,72.757 209.552,72.946 209.766 C 73.134 209.981,73.288 210.224,73.288 210.308 C 73.288 210.391,73.899 211.503,74.645 212.778 C 75.392 214.053,76.002 215.216,76.002 215.362 C 76.002 215.508,76.095 215.665,76.208 215.710 C 76.482 215.821,79.457 220.943,79.457 221.306 C 79.457 221.463,79.557 221.592,79.680 221.592 C 79.802 221.592,80.027 221.897,80.179 222.270 C 80.515 223.096,81.245 224.382,81.477 224.558 C 81.571 224.628,81.766 224.962,81.912 225.298 C 82.058 225.635,82.383 226.243,82.633 226.650 C 82.884 227.057,83.309 227.779,83.579 228.254 C 84.285 229.496,85.609 231.769,85.879 232.202 C 86.007 232.406,87.506 235.015,89.211 238.001 C 90.917 240.987,92.421 243.597,92.554 243.800 C 92.688 244.004,92.862 244.365,92.942 244.602 C 93.021 244.840,93.177 245.034,93.289 245.034 C 93.400 245.034,93.631 245.423,93.803 245.898 C 93.975 246.373,94.191 246.761,94.284 246.761 C 94.376 246.761,94.517 246.956,94.597 247.193 C 94.677 247.431,95.068 248.180,95.465 248.859 C 95.863 249.537,96.491 250.648,96.861 251.326 C 97.231 252.005,97.614 252.616,97.712 252.684 C 97.810 252.751,97.935 252.935,97.989 253.091 C 98.043 253.247,98.754 254.548,99.568 255.983 L 101.049 258.591 118.754 258.598 C 128.492 258.603,136.459 258.556,136.459 258.494 C 136.459 258.312,135.864 257.012,135.719 256.878 C 135.645 256.811,135.448 256.477,135.279 256.138 C 135.111 255.799,134.753 255.188,134.485 254.781 C 134.216 254.374,133.921 253.874,133.829 253.671 C 133.648 253.273,132.567 251.382,131.454 249.516 C 131.076 248.883,130.577 247.977,130.344 247.502 C 130.110 247.027,129.854 246.582,129.775 246.514 C 129.617 246.381,128.272 244.065,127.768 243.060 C 127.597 242.721,127.318 242.296,127.147 242.117 C 126.976 241.938,126.768 241.522,126.686 241.192 C 126.603 240.862,126.459 240.592,126.366 240.592 C 126.272 240.592,125.831 239.898,125.385 239.050 C 124.938 238.202,124.362 237.175,124.103 236.767 C 123.844 236.360,123.494 235.750,123.324 235.410 C 123.155 235.071,122.876 234.647,122.705 234.467 C 122.534 234.288,122.394 234.026,122.394 233.886 C 122.394 233.746,122.062 233.139,121.656 232.538 C 121.250 231.937,120.849 231.171,120.765 230.837 C 120.681 230.502,120.510 230.228,120.385 230.228 C 120.260 230.228,120.083 230.034,119.993 229.796 C 119.903 229.559,119.240 228.343,118.520 227.095 C 117.800 225.847,117.212 224.709,117.212 224.566 C 117.212 224.423,117.128 224.306,117.027 224.305 C 116.925 224.305,116.508 223.666,116.101 222.886 C 115.694 222.106,115.295 221.413,115.214 221.345 C 115.074 221.228,114.659 220.493,113.959 219.124 C 113.786 218.785,113.577 218.452,113.496 218.384 C 113.414 218.316,113.023 217.650,112.627 216.903 C 112.231 216.157,111.830 215.488,111.737 215.418 C 111.643 215.347,111.446 215.014,111.299 214.677 C 111.151 214.341,110.784 213.652,110.481 213.146 C 110.179 212.640,109.613 211.641,109.224 210.925 C 108.834 210.209,108.207 209.162,107.829 208.598 C 107.451 208.034,107.061 207.312,106.962 206.994 C 106.862 206.676,106.703 206.360,106.608 206.292 C 106.327 206.092,102.653 199.691,102.653 199.401 C 102.653 199.256,102.569 199.136,102.468 199.135 C 102.366 199.135,101.949 198.503,101.542 197.730 C 101.135 196.958,100.441 195.767,100.000 195.084 C 99.559 194.401,99.198 193.701,99.198 193.528 C 99.198 193.355,99.108 193.214,98.999 193.214 C 98.889 193.214,98.441 192.520,98.003 191.672 C 97.565 190.824,96.928 189.685,96.588 189.143 C 96.247 188.600,95.905 187.961,95.827 187.724 C 95.750 187.486,95.610 187.292,95.517 187.292 C 95.425 187.292,95.208 186.903,95.037 186.428 C 94.865 185.953,94.633 185.564,94.520 185.564 C 94.408 185.564,94.240 185.260,94.147 184.888 C 94.053 184.516,93.894 184.156,93.793 184.086 C 93.692 184.017,92.967 182.863,92.181 181.522 L 90.753 179.083 91.297 178.067 C 91.596 177.508,92.106 176.607,92.430 176.064 C 92.754 175.521,93.158 174.800,93.328 174.460 C 93.497 174.121,93.707 173.788,93.794 173.720 C 93.881 173.652,94.256 173.041,94.626 172.363 C 94.996 171.684,95.624 170.574,96.021 169.895 C 96.419 169.217,96.809 168.467,96.889 168.229 C 96.969 167.992,97.120 167.798,97.224 167.798 C 97.328 167.798,97.477 167.603,97.556 167.366 C 97.634 167.128,98.149 166.157,98.699 165.207 C 99.250 164.257,99.885 163.118,100.112 162.677 C 100.338 162.236,100.614 161.875,100.724 161.875 C 100.835 161.875,100.925 161.754,100.925 161.607 C 100.925 161.385,104.806 154.487,105.633 153.239 C 105.768 153.035,106.010 152.563,106.170 152.190 C 106.331 151.817,106.536 151.511,106.625 151.511 C 106.715 151.511,106.934 151.151,107.112 150.709 C 107.291 150.268,107.498 149.852,107.574 149.784 C 107.796 149.585,108.263 148.778,109.110 147.131 C 109.547 146.283,109.981 145.589,110.076 145.589 C 110.171 145.589,110.313 145.339,110.391 145.034 C 110.469 144.729,110.926 143.886,111.405 143.162 C 111.884 142.437,112.276 141.806,112.276 141.758 C 112.276 141.711,113.365 139.805,114.696 137.523 C 116.027 135.241,117.191 133.208,117.282 133.004 C 117.373 132.801,117.725 132.190,118.063 131.647 C 118.402 131.104,118.883 130.271,119.132 129.796 C 119.741 128.637,120.269 127.726,120.419 127.576 C 120.560 127.435,120.927 126.797,121.982 124.861 C 122.389 124.115,122.793 123.448,122.880 123.381 C 122.967 123.313,123.184 122.896,123.363 122.455 C 123.541 122.014,123.773 121.653,123.877 121.653 C 123.982 121.653,124.137 121.376,124.222 121.036 C 124.307 120.697,124.486 120.419,124.619 120.419 C 124.752 120.419,124.861 120.291,124.861 120.134 C 124.861 119.861,127.749 114.753,128.048 114.497 C 128.128 114.429,128.383 113.985,128.616 113.510 C 128.849 113.035,129.377 112.091,129.788 111.413 C 130.200 110.734,130.711 109.846,130.924 109.439 C 131.137 109.031,131.578 108.254,131.905 107.711 C 132.232 107.168,132.620 106.449,132.767 106.112 C 132.915 105.776,133.112 105.443,133.205 105.372 C 133.298 105.301,133.641 104.744,133.967 104.133 C 134.293 103.523,134.653 102.902,134.767 102.754 C 134.880 102.606,135.309 101.856,135.719 101.088 L 136.464 99.692 118.706 99.692 L 100.947 99.692 99.917 101.481 M317.441 111.677 C 317.654 111.890,317.829 112.223,317.829 112.417 C 317.829 112.611,317.916 112.770,318.022 112.770 C 318.129 112.770,318.545 113.405,318.948 114.180 C 319.350 114.956,319.818 115.741,319.988 115.925 C 320.157 116.109,320.296 116.353,320.296 116.467 C 320.296 116.582,320.685 117.265,321.160 117.986 C 321.635 118.708,322.023 119.386,322.023 119.494 C 322.023 119.602,322.313 120.127,322.667 120.662 C 323.319 121.648,323.542 122.037,324.851 124.484 C 325.253 125.234,325.669 125.848,325.776 125.848 C 325.884 125.848,325.972 125.976,325.972 126.133 C 325.972 126.289,327.027 128.224,328.316 130.432 C 329.605 132.640,330.660 134.567,330.660 134.713 C 330.660 134.859,330.747 134.978,330.854 134.978 C 330.960 134.978,331.377 135.617,331.779 136.397 C 332.182 137.178,332.569 137.872,332.639 137.940 C 332.710 138.007,332.906 138.341,333.076 138.680 C 333.246 139.019,333.649 139.741,333.973 140.284 C 334.297 140.827,334.719 141.548,334.910 141.888 C 335.719 143.322,335.973 143.745,336.094 143.862 C 336.164 143.930,336.358 144.263,336.524 144.602 C 336.690 144.941,336.933 145.386,337.064 145.589 C 337.315 145.980,344.112 157.786,344.451 158.421 C 344.921 159.300,345.351 160.034,345.466 160.148 C 345.613 160.296,346.130 161.185,346.756 162.369 C 347.008 162.844,347.481 163.677,347.807 164.220 C 348.134 164.762,348.507 165.429,348.636 165.700 C 348.765 165.972,349.160 166.615,349.513 167.130 C 349.866 167.645,350.154 168.122,350.154 168.190 C 350.154 168.258,351.304 170.279,352.709 172.682 C 355.233 176.998,355.931 178.221,357.385 180.876 C 357.794 181.622,358.421 182.677,358.779 183.220 C 359.137 183.763,359.565 184.485,359.732 184.824 C 359.898 185.163,360.305 185.885,360.635 186.428 C 360.965 186.971,361.317 187.582,361.418 187.785 C 361.518 187.989,362.357 189.452,363.280 191.036 C 364.204 192.620,364.960 194.036,364.960 194.182 C 364.960 194.328,365.048 194.448,365.155 194.448 C 365.262 194.448,365.660 195.031,366.038 195.743 C 367.018 197.589,367.532 198.501,367.675 198.643 C 367.743 198.711,367.965 199.099,368.168 199.506 C 368.371 199.914,368.595 200.302,368.666 200.370 C 368.737 200.438,368.937 200.771,369.110 201.110 C 369.821 202.500,370.226 203.215,370.370 203.331 C 370.454 203.399,370.664 203.732,370.838 204.072 C 371.548 205.461,371.954 206.176,372.097 206.292 C 372.181 206.360,372.385 206.693,372.551 207.033 C 372.717 207.372,372.963 207.816,373.098 208.020 C 373.845 209.149,377.791 216.175,377.791 216.376 C 377.791 216.508,377.879 216.652,377.986 216.698 C 378.183 216.781,379.144 218.361,380.201 220.339 C 380.775 221.413,380.621 222.463,379.766 223.319 C 379.698 223.387,379.493 223.707,379.311 224.031 C 379.128 224.355,378.751 225.022,378.472 225.512 C 378.194 226.002,377.630 227.014,377.220 227.761 C 376.810 228.507,376.383 229.155,376.270 229.200 C 376.157 229.245,376.064 229.374,376.064 229.486 C 376.064 229.710,372.381 236.198,372.141 236.397 C 372.060 236.465,371.659 237.187,371.252 238.001 C 370.845 238.816,370.453 239.537,370.381 239.605 C 370.144 239.827,368.168 243.265,368.168 243.454 C 368.168 243.555,368.010 243.813,367.817 244.027 C 367.624 244.242,367.175 244.972,366.819 245.651 C 366.463 246.329,365.960 247.218,365.702 247.625 C 365.443 248.032,364.881 249.031,364.452 249.846 C 364.024 250.660,363.602 251.382,363.514 251.450 C 363.427 251.518,363.023 252.211,362.616 252.991 C 362.209 253.771,361.792 254.410,361.690 254.410 C 361.589 254.410,361.505 254.531,361.505 254.677 C 361.505 254.958,358.562 260.123,358.281 260.333 C 358.191 260.401,358.032 260.734,357.927 261.073 C 357.823 261.413,357.659 261.746,357.564 261.814 C 357.469 261.882,356.957 262.714,356.425 263.663 C 355.894 264.612,355.326 265.611,355.162 265.884 C 354.998 266.156,354.741 266.654,354.591 266.991 C 354.441 267.327,354.242 267.660,354.149 267.731 C 353.916 267.907,353.186 269.193,352.850 270.019 C 352.698 270.392,352.473 270.697,352.351 270.697 C 352.228 270.697,352.128 270.826,352.128 270.983 C 352.128 271.346,349.154 276.468,348.879 276.578 C 348.766 276.623,348.674 276.773,348.674 276.911 C 348.674 277.120,346.496 281.057,345.696 282.295 C 345.564 282.498,345.318 282.943,345.150 283.282 C 344.981 283.621,344.552 284.348,344.196 284.897 C 343.840 285.446,343.237 286.501,342.854 287.241 C 342.472 287.982,342.098 288.643,342.024 288.711 C 341.949 288.779,341.563 289.445,341.167 290.191 C 340.771 290.938,340.382 291.604,340.303 291.672 C 340.225 291.740,339.827 292.433,339.420 293.213 C 339.013 293.993,338.597 294.632,338.495 294.632 C 338.393 294.633,338.310 294.792,338.310 294.985 C 338.310 295.179,338.171 295.489,338.001 295.673 C 337.832 295.857,337.364 296.642,336.961 297.418 C 336.559 298.193,336.154 298.828,336.063 298.828 C 335.971 298.828,335.828 299.098,335.745 299.428 C 335.662 299.757,335.455 300.174,335.284 300.353 C 335.113 300.532,334.839 300.956,334.676 301.295 C 334.343 301.989,333.318 303.784,331.585 306.709 C 330.941 307.797,330.413 308.801,330.413 308.939 C 330.413 309.078,330.329 309.192,330.227 309.192 C 330.124 309.192,329.883 309.553,329.691 309.994 C 329.499 310.435,329.276 310.851,329.194 310.919 C 329.113 310.987,328.908 311.320,328.740 311.659 C 328.572 311.999,328.222 312.610,327.964 313.017 C 327.705 313.424,327.128 314.451,326.682 315.299 C 326.236 316.147,325.782 316.841,325.674 316.841 C 325.566 316.841,325.478 316.961,325.478 317.106 C 325.478 317.252,324.269 319.445,322.792 321.980 C 321.314 324.515,319.855 327.033,319.549 327.576 C 319.243 328.118,318.784 328.896,318.529 329.303 C 318.274 329.710,317.930 330.353,317.766 330.732 C 317.601 331.110,317.242 331.474,316.969 331.539 C 315.479 331.896,171.870 331.515,171.908 331.154 C 171.955 330.703,173.153 327.227,173.439 326.712 C 173.551 326.508,173.783 325.758,173.953 325.046 C 174.124 324.333,174.363 323.688,174.485 323.612 C 174.607 323.537,174.708 323.287,174.708 323.058 C 174.709 322.828,174.861 322.351,175.045 321.998 C 175.230 321.644,175.518 320.783,175.686 320.084 C 175.853 319.386,176.090 318.752,176.212 318.677 C 176.334 318.601,176.435 318.352,176.436 318.122 C 176.437 317.893,176.588 317.416,176.773 317.062 C 176.957 316.709,177.245 315.848,177.413 315.149 C 177.581 314.450,177.818 313.817,177.940 313.742 C 178.062 313.666,178.162 313.433,178.162 313.224 C 178.162 313.015,178.318 312.495,178.508 312.067 C 178.699 311.639,179.146 310.401,179.502 309.315 C 179.858 308.229,180.251 307.119,180.374 306.848 C 180.498 306.576,180.886 305.466,181.237 304.380 C 181.588 303.294,181.970 302.236,182.085 302.028 C 182.200 301.820,182.374 301.285,182.472 300.839 C 182.570 300.393,182.805 299.731,182.995 299.366 C 183.185 299.002,183.341 298.555,183.342 298.372 C 183.343 298.189,183.503 297.689,183.698 297.261 C 183.893 296.834,184.164 296.095,184.300 295.620 C 184.588 294.614,185.237 292.752,185.546 292.042 C 185.664 291.771,186.007 290.771,186.307 289.821 C 186.607 288.871,186.994 287.761,187.167 287.353 C 187.339 286.946,187.728 285.836,188.030 284.886 C 188.333 283.936,188.727 282.825,188.907 282.418 C 189.087 282.011,189.344 281.289,189.479 280.814 C 189.683 280.093,190.930 276.441,191.417 275.139 C 192.123 273.251,193.313 269.820,193.641 268.723 C 193.865 267.977,194.138 267.329,194.248 267.284 C 194.358 267.238,194.448 266.978,194.448 266.704 C 194.448 266.430,194.601 265.857,194.789 265.429 C 194.976 265.001,195.430 263.763,195.797 262.677 C 196.164 261.592,196.565 260.481,196.689 260.210 C 196.812 259.938,197.194 258.828,197.537 257.742 C 197.880 256.656,198.261 255.546,198.384 255.275 C 198.507 255.003,198.912 253.837,199.284 252.684 C 199.656 251.530,200.040 250.475,200.137 250.339 C 200.234 250.204,200.396 249.704,200.497 249.229 C 200.597 248.754,200.832 248.146,201.019 247.878 C 201.205 247.611,201.358 247.167,201.359 246.891 C 201.360 246.616,201.516 246.093,201.706 245.729 C 201.896 245.365,202.127 244.719,202.221 244.294 C 202.314 243.868,202.546 243.222,202.736 242.858 C 202.926 242.494,203.082 242.046,203.083 241.863 C 203.084 241.680,203.242 241.181,203.435 240.753 C 203.628 240.325,204.078 239.087,204.435 238.001 C 204.792 236.915,205.150 235.861,205.229 235.657 C 205.613 234.675,207.085 230.498,207.316 229.735 C 207.460 229.260,207.662 228.760,207.766 228.624 C 207.870 228.489,208.092 227.794,208.259 227.081 C 208.426 226.368,208.663 225.723,208.785 225.648 C 208.907 225.572,209.007 225.323,209.008 225.093 C 209.009 224.864,209.161 224.387,209.345 224.033 C 209.530 223.680,209.818 222.819,209.985 222.120 C 210.153 221.421,210.390 220.788,210.512 220.713 C 210.634 220.637,210.735 220.388,210.736 220.158 C 210.736 219.929,210.888 219.452,211.073 219.098 C 211.257 218.745,211.545 217.884,211.713 217.185 C 211.880 216.486,212.117 215.853,212.239 215.777 C 212.362 215.702,212.462 215.452,212.463 215.223 C 212.464 214.993,212.620 214.508,212.810 214.144 C 213.000 213.780,213.232 213.134,213.325 212.708 C 213.419 212.283,213.650 211.637,213.840 211.273 C 214.030 210.909,214.186 210.461,214.187 210.278 C 214.188 210.095,214.348 209.595,214.543 209.167 C 214.738 208.740,215.009 208.001,215.145 207.526 C 215.511 206.248,216.137 204.495,216.380 204.063 C 216.498 203.855,216.676 203.300,216.777 202.830 C 216.878 202.359,217.047 201.863,217.154 201.727 C 217.261 201.592,217.475 200.981,217.630 200.370 C 217.784 199.759,218.014 199.038,218.141 198.766 C 218.445 198.112,219.094 196.264,219.397 195.188 C 219.531 194.713,219.736 194.102,219.852 193.831 C 219.968 193.560,220.312 192.616,220.617 191.733 C 220.921 190.851,221.309 189.796,221.478 189.389 C 221.647 188.982,222.102 187.650,222.489 186.428 C 222.876 185.207,223.258 184.152,223.338 184.084 C 223.419 184.016,223.601 183.516,223.744 182.973 C 224.173 181.344,225.650 177.304,225.848 177.216 C 225.950 177.170,226.033 176.927,226.033 176.675 C 226.033 176.290,226.359 175.271,227.449 172.239 C 228.925 168.137,229.326 166.964,229.643 165.824 C 229.851 165.077,230.123 164.361,230.248 164.232 C 230.373 164.103,230.476 163.825,230.477 163.615 C 230.477 163.405,230.633 162.935,230.823 162.571 C 231.013 162.207,231.245 161.561,231.339 161.135 C 231.432 160.710,231.664 160.064,231.854 159.700 C 232.044 159.336,232.200 158.888,232.201 158.705 C 232.202 158.522,232.360 158.022,232.553 157.594 C 232.746 157.167,233.195 155.928,233.551 154.843 C 233.907 153.757,234.297 152.647,234.417 152.375 C 234.537 152.104,234.939 150.938,235.311 149.784 C 235.683 148.630,236.067 147.576,236.164 147.440 C 236.261 147.304,236.421 146.804,236.521 146.329 C 236.620 145.854,236.810 145.330,236.944 145.164 C 237.077 144.999,237.280 144.499,237.395 144.054 C 237.693 142.898,238.367 140.908,238.768 140.000 C 238.957 139.572,239.112 139.089,239.112 138.927 C 239.112 138.764,239.271 138.281,239.466 137.853 C 239.661 137.426,239.932 136.687,240.068 136.212 C 240.453 134.867,241.065 133.171,241.334 132.699 C 241.469 132.464,241.580 132.130,241.581 131.959 C 241.582 131.787,241.733 131.358,241.918 131.004 C 242.102 130.651,242.390 129.790,242.558 129.091 C 242.726 128.392,242.963 127.759,243.085 127.684 C 243.207 127.608,243.307 127.375,243.307 127.166 C 243.307 126.957,243.458 126.437,243.644 126.009 C 243.829 125.581,244.286 124.287,244.658 123.134 C 245.031 121.980,245.420 120.925,245.523 120.790 C 245.625 120.654,245.846 119.960,246.013 119.247 C 246.181 118.534,246.417 117.889,246.539 117.813 C 246.661 117.738,246.761 117.426,246.761 117.121 C 246.761 116.815,246.924 116.350,247.124 116.087 C 247.323 115.823,247.493 115.386,247.502 115.114 C 247.511 114.843,247.733 114.176,247.995 113.634 C 248.257 113.091,248.476 112.474,248.480 112.264 C 248.502 111.269,247.794 111.289,283.067 111.289 C 313.634 111.289,317.092 111.328,317.441 111.677 M263.621 142.935 C 263.929 143.513,264.870 145.161,265.712 146.599 C 266.554 148.037,267.242 149.332,267.242 149.478 C 267.242 149.624,267.342 149.780,267.463 149.825 C 267.666 149.901,268.809 151.797,269.519 153.239 C 269.687 153.578,269.891 153.911,269.973 153.979 C 270.055 154.047,270.557 154.879,271.088 155.828 C 271.620 156.777,272.190 157.777,272.356 158.049 C 272.522 158.321,272.801 158.822,272.976 159.161 C 273.151 159.500,273.582 160.222,273.934 160.765 C 274.285 161.308,274.652 162.002,274.749 162.307 C 274.846 162.613,275.029 162.862,275.155 162.862 C 275.282 162.862,275.390 163.001,275.395 163.171 C 275.400 163.341,275.781 164.090,276.241 164.837 C 276.700 165.583,277.353 166.693,277.691 167.304 C 278.028 167.915,278.590 168.914,278.939 169.525 C 279.289 170.136,279.712 170.913,279.881 171.252 C 280.049 171.592,280.255 171.925,280.337 171.993 C 280.616 172.223,282.542 175.655,282.542 175.922 C 282.542 176.068,282.639 176.188,282.758 176.188 C 282.878 176.188,283.123 176.548,283.303 176.990 C 283.484 177.431,283.775 177.938,283.950 178.118 C 284.125 178.297,284.269 178.602,284.269 178.796 C 284.269 178.990,284.373 179.149,284.500 179.149 C 284.627 179.149,284.871 179.537,285.043 180.012 C 285.215 180.487,285.433 180.876,285.528 180.876 C 285.623 180.876,285.827 181.181,285.980 181.555 C 286.133 181.928,286.394 182.456,286.559 182.728 C 286.725 183.000,287.304 183.987,287.847 184.920 C 288.390 185.854,289.079 187.019,289.377 187.510 C 289.676 188.001,290.001 188.569,290.098 188.772 C 290.195 188.976,291.644 191.493,293.318 194.365 C 294.991 197.238,296.360 199.709,296.360 199.856 C 296.360 200.003,296.460 200.123,296.583 200.123 C 296.705 200.123,296.930 200.429,297.082 200.802 C 297.418 201.627,298.148 202.914,298.381 203.090 C 298.474 203.160,298.671 203.493,298.818 203.830 C 298.966 204.166,299.334 204.855,299.636 205.361 C 299.938 205.867,300.505 206.866,300.895 207.582 C 301.286 208.298,301.677 208.939,301.764 209.007 C 301.851 209.075,302.061 209.408,302.231 209.747 C 302.400 210.086,302.809 210.808,303.139 211.351 C 303.469 211.894,303.822 212.505,303.923 212.708 C 304.024 212.912,305.187 214.937,306.507 217.210 L 308.906 221.341 308.309 222.392 C 307.980 222.969,307.541 223.775,307.333 224.183 C 307.125 224.590,306.742 225.256,306.481 225.663 C 306.220 226.070,305.715 226.959,305.359 227.637 C 305.003 228.316,304.553 229.046,304.361 229.261 C 304.168 229.475,304.010 229.772,304.010 229.922 C 304.010 230.071,303.871 230.344,303.701 230.528 C 303.532 230.712,303.064 231.497,302.661 232.273 C 302.259 233.048,301.865 233.683,301.786 233.683 C 301.706 233.683,301.501 234.072,301.329 234.547 C 301.157 235.022,300.913 235.410,300.786 235.410 C 300.659 235.410,300.555 235.533,300.555 235.684 C 300.555 235.835,299.406 237.917,298.002 240.311 C 295.195 245.097,294.249 246.755,293.687 247.872 C 293.482 248.279,293.245 248.667,293.159 248.735 C 293.074 248.803,292.690 249.469,292.306 250.216 C 291.922 250.962,291.539 251.629,291.455 251.696 C 291.283 251.835,290.810 252.633,290.141 253.917 C 289.893 254.392,289.582 254.948,289.449 255.151 C 289.317 255.355,288.669 256.465,288.010 257.619 C 287.350 258.772,285.839 261.382,284.651 263.418 C 283.464 265.453,282.241 267.563,281.934 268.106 C 281.628 268.649,281.142 269.482,280.856 269.957 C 280.570 270.432,280.131 271.209,279.881 271.684 C 279.270 272.847,278.743 273.755,278.593 273.905 C 278.479 274.020,278.187 274.519,277.621 275.571 C 277.493 275.808,276.455 277.613,275.315 279.581 C 274.174 281.548,272.391 284.628,271.352 286.424 C 270.313 288.220,269.463 289.802,269.463 289.940 C 269.463 290.078,269.373 290.191,269.263 290.191 C 269.152 290.191,268.909 290.580,268.723 291.055 C 268.537 291.530,268.307 291.919,268.212 291.919 C 268.118 291.919,267.970 292.113,267.884 292.350 C 267.798 292.588,267.394 293.337,266.985 294.016 C 266.576 294.695,266.177 295.444,266.097 295.682 C 266.017 295.919,265.875 296.114,265.783 296.114 C 265.690 296.114,265.474 296.502,265.302 296.977 C 265.130 297.452,264.899 297.841,264.788 297.841 C 264.677 297.841,264.514 298.035,264.427 298.273 C 264.339 298.510,264.054 299.093,263.793 299.568 C 263.532 300.043,263.313 300.515,263.306 300.617 C 263.291 300.856,298.379 300.853,298.705 300.613 C 299.000 300.396,299.277 299.938,300.342 297.903 C 300.786 297.054,301.238 296.360,301.346 296.360 C 301.454 296.360,301.542 296.240,301.542 296.092 C 301.542 295.945,302.910 293.474,304.582 290.602 C 306.254 287.730,307.700 285.213,307.795 285.009 C 307.890 284.806,308.216 284.225,308.518 283.720 C 308.821 283.214,309.388 282.214,309.779 281.499 C 310.170 280.783,310.558 280.142,310.643 280.074 C 310.727 280.006,310.963 279.618,311.166 279.210 C 311.369 278.803,311.591 278.415,311.659 278.347 C 311.879 278.128,312.365 277.272,313.165 275.694 C 313.596 274.846,314.044 274.152,314.161 274.152 C 314.278 274.152,314.374 274.025,314.374 273.869 C 314.374 273.714,315.595 271.504,317.088 268.959 C 318.581 266.413,319.803 264.208,319.803 264.059 C 319.803 263.910,319.889 263.788,319.995 263.788 C 320.101 263.788,320.322 263.482,320.487 263.109 C 320.651 262.736,321.056 261.986,321.387 261.444 C 321.719 260.901,322.163 260.123,322.375 259.716 C 322.587 259.309,323.044 258.532,323.390 257.989 C 323.736 257.446,324.082 256.808,324.160 256.570 C 324.238 256.333,324.400 256.138,324.520 256.138 C 324.640 256.138,324.738 256.017,324.738 255.869 C 324.738 255.722,325.737 253.893,326.959 251.806 C 328.180 249.720,329.180 247.959,329.180 247.893 C 329.180 247.827,329.499 247.296,329.890 246.712 C 330.281 246.128,330.903 245.096,331.272 244.417 C 331.641 243.738,332.266 242.628,332.660 241.949 C 333.054 241.271,333.452 240.549,333.543 240.345 C 333.634 240.142,333.774 239.920,333.855 239.852 C 333.936 239.784,334.137 239.451,334.303 239.112 C 334.469 238.772,334.710 238.328,334.840 238.125 C 334.969 237.921,335.550 236.922,336.132 235.904 C 336.714 234.886,337.275 234.016,337.380 233.971 C 337.484 233.926,337.569 233.777,337.569 233.640 C 337.569 233.437,341.421 226.601,342.273 225.293 C 342.405 225.089,342.652 224.645,342.821 224.306 C 342.989 223.967,343.431 223.219,343.803 222.645 C 344.481 221.598,344.647 220.964,344.284 220.810 C 344.093 220.730,341.024 215.579,341.024 215.340 C 341.024 215.273,340.635 214.629,340.160 213.907 C 339.685 213.186,339.297 212.455,339.297 212.282 C 339.297 212.109,339.197 211.968,339.074 211.968 C 338.952 211.968,338.725 211.663,338.571 211.289 C 338.417 210.916,338.024 210.167,337.699 209.624 C 336.929 208.339,336.338 207.291,335.995 206.603 C 335.843 206.298,335.635 206.049,335.534 206.048 C 335.432 206.047,335.349 205.917,335.349 205.761 C 335.349 205.604,334.294 203.681,333.004 201.487 C 331.715 199.293,330.660 197.367,330.660 197.207 C 330.660 197.047,330.573 196.915,330.466 196.915 C 330.360 196.915,329.943 196.277,329.541 195.497 C 329.139 194.716,328.743 194.022,328.662 193.954 C 328.524 193.838,328.137 193.155,327.405 191.733 C 327.231 191.394,326.948 190.970,326.776 190.791 C 326.605 190.611,326.465 190.359,326.465 190.230 C 326.465 190.102,326.161 189.527,325.789 188.953 C 325.418 188.378,324.974 187.631,324.803 187.292 C 324.632 186.952,324.255 186.286,323.964 185.811 C 323.673 185.336,323.157 184.448,322.817 183.837 C 322.002 182.375,317.133 173.948,316.828 173.473 C 316.698 173.270,316.455 172.825,316.289 172.486 C 316.124 172.147,315.909 171.811,315.813 171.741 C 315.717 171.670,315.518 171.337,315.370 171.001 C 315.223 170.664,314.855 169.975,314.553 169.469 C 314.251 168.963,313.684 167.964,313.293 167.248 C 312.903 166.533,312.512 165.891,312.425 165.824 C 312.338 165.756,312.128 165.423,311.958 165.083 C 311.788 164.744,311.380 164.022,311.049 163.479 C 310.719 162.936,310.367 162.326,310.267 162.122 C 310.066 161.713,304.463 151.998,303.864 151.018 C 303.656 150.679,303.424 150.207,303.349 149.969 C 303.274 149.732,303.135 149.537,303.040 149.537 C 302.946 149.537,302.716 149.149,302.529 148.674 C 302.343 148.199,302.100 147.810,301.990 147.810 C 301.879 147.810,301.789 147.691,301.789 147.545 C 301.789 147.298,299.870 143.891,299.576 143.615 C 299.504 143.547,299.274 143.159,299.065 142.751 L 298.686 142.011 280.873 141.948 L 263.060 141.884 263.621 142.935 " stroke="none" fill="#fcfbfb" fill-rule="evenodd"></path><path id="path2" d="M118.877 69.031 C 138.862 69.066,171.564 69.066,191.548 69.031 C 211.533 68.997,195.182 68.968,155.213 68.968 C 115.244 68.968,98.893 68.997,118.877 69.031 M107.218 99.378 C 123.916 99.549,136.706 99.551,136.706 99.383 C 136.706 99.281,128.627 99.224,118.754 99.255 C 108.880 99.287,103.689 99.342,107.218 99.378 M265.947 111.721 C 275.345 111.757,290.725 111.757,300.123 111.721 C 309.522 111.685,301.832 111.656,283.035 111.656 C 264.238 111.656,256.548 111.685,265.947 111.721 M262.962 300.864 C 263.025 300.965,271.114 301.049,280.938 301.049 C 290.761 301.049,298.850 300.965,298.913 300.864 C 298.976 300.762,290.887 300.679,280.938 300.679 C 270.988 300.679,262.899 300.762,262.962 300.864 " stroke="none" fill="#eaa8a9" fill-rule="evenodd"></path><path id="path3" d="M218.617 94.420 C 218.481 94.779,218.416 95.117,218.472 95.173 C 218.528 95.229,218.692 94.936,218.836 94.522 C 219.157 93.602,218.963 93.511,218.617 94.420 M60.835 106.499 C 60.605 106.850,60.460 107.180,60.511 107.232 C 60.563 107.283,60.801 106.996,61.039 106.593 C 61.570 105.693,61.412 105.619,60.835 106.499 M211.022 116.212 C 210.878 116.626,210.812 116.965,210.876 116.965 C 211.043 116.965,211.509 115.683,211.386 115.561 C 211.330 115.505,211.167 115.798,211.022 116.212 M246.061 119.566 C 245.648 120.474,245.726 120.667,246.174 119.842 C 246.382 119.457,246.507 119.096,246.451 119.039 C 246.394 118.983,246.219 119.220,246.061 119.566 M202.384 140.788 C 201.971 141.695,202.050 141.889,202.497 141.064 C 202.706 140.679,202.830 140.317,202.774 140.261 C 202.717 140.204,202.542 140.442,202.384 140.788 M238.413 141.382 C 238.268 141.796,238.203 142.134,238.267 142.134 C 238.434 142.134,238.899 140.853,238.777 140.730 C 238.721 140.675,238.557 140.968,238.413 141.382 M280.691 141.825 L 298.705 141.891 299.167 142.445 L 299.629 142.998 299.260 142.381 L 298.891 141.764 280.784 141.762 L 262.677 141.759 280.691 141.825 M201.645 142.862 C 201.501 143.276,201.435 143.615,201.500 143.615 C 201.666 143.615,202.132 142.333,202.010 142.211 C 201.954 142.155,201.790 142.448,201.645 142.862 M199.864 147.968 C 199.727 148.326,199.662 148.665,199.718 148.720 C 199.774 148.776,199.938 148.483,200.082 148.069 C 200.403 147.149,200.209 147.059,199.864 147.968 M198.136 152.903 C 198.000 153.261,197.935 153.600,197.990 153.656 C 198.046 153.712,198.210 153.419,198.355 153.005 C 198.676 152.084,198.482 151.994,198.136 152.903 M308.427 158.544 C 308.843 159.349,309.184 159.795,309.183 159.531 C 309.182 159.395,308.954 159.007,308.676 158.667 C 308.341 158.258,308.257 158.216,308.427 158.544 M228.049 170.993 C 227.904 171.407,227.839 171.746,227.903 171.746 C 228.070 171.746,228.535 170.464,228.413 170.342 C 228.357 170.286,228.193 170.579,228.049 170.993 M222.867 185.799 C 222.722 186.213,222.657 186.552,222.721 186.552 C 222.888 186.552,223.353 185.270,223.231 185.148 C 223.175 185.092,223.011 185.385,222.867 185.799 M182.590 197.320 C 182.454 197.678,182.389 198.017,182.445 198.073 C 182.500 198.129,182.664 197.836,182.809 197.422 C 183.130 196.501,182.936 196.411,182.590 197.320 M218.672 197.890 C 218.527 198.304,218.462 198.643,218.526 198.643 C 218.693 198.643,219.158 197.361,219.036 197.239 C 218.980 197.183,218.816 197.476,218.672 197.890 M176.722 214.176 C 176.578 214.590,176.512 214.929,176.577 214.929 C 176.743 214.929,177.209 213.647,177.087 213.525 C 177.031 213.469,176.867 213.762,176.722 214.176 M167.291 240.997 C 167.155 241.355,167.089 241.694,167.145 241.749 C 167.201 241.805,167.365 241.512,167.510 241.098 C 167.830 240.178,167.637 240.088,167.291 240.997 M166.357 243.687 C 165.944 244.595,166.023 244.788,166.470 243.963 C 166.678 243.578,166.803 243.217,166.747 243.160 C 166.690 243.104,166.515 243.341,166.357 243.687 M162.109 255.802 C 161.973 256.160,161.907 256.499,161.963 256.555 C 162.019 256.611,162.183 256.318,162.328 255.904 C 162.648 254.984,162.455 254.893,162.109 255.802 M184.372 295.854 C 184.228 296.268,184.162 296.607,184.226 296.607 C 184.393 296.607,184.858 295.325,184.736 295.203 C 184.680 295.147,184.516 295.440,184.372 295.854 M182.645 300.789 C 182.500 301.203,182.435 301.542,182.499 301.542 C 182.665 301.542,183.131 300.260,183.009 300.138 C 182.953 300.082,182.789 300.375,182.645 300.789 M262.801 301.110 C 262.801 301.212,270.900 301.295,280.800 301.295 C 290.699 301.295,298.850 301.212,298.913 301.110 C 298.976 301.009,290.876 300.925,280.914 300.925 C 270.952 300.925,262.801 301.009,262.801 301.110 " stroke="none" fill="#e48c8c" fill-rule="evenodd"></path><path id="path4" d="M82.580 68.785 C 82.476 68.952,131.278 68.951,201.604 68.783 C 216.058 68.749,195.216 68.694,155.289 68.660 C 115.362 68.627,82.643 68.683,82.580 68.785 M221.139 87.834 C 220.995 88.248,220.929 88.587,220.994 88.587 C 221.160 88.587,221.626 87.305,221.504 87.183 C 221.448 87.127,221.284 87.420,221.139 87.834 M100.840 99.630 C 100.777 99.732,108.773 99.786,118.609 99.750 C 132.193 99.701,136.449 99.754,136.314 99.973 C 136.202 100.154,136.243 100.195,136.425 100.083 C 136.584 99.985,136.650 99.801,136.572 99.674 C 136.401 99.399,101.010 99.355,100.840 99.630 M215.957 102.640 C 215.813 103.054,215.748 103.393,215.812 103.393 C 215.978 103.393,216.444 102.111,216.322 101.989 C 216.266 101.933,216.102 102.226,215.957 102.640 M248.704 111.721 C 248.403 112.105,248.410 112.118,248.764 111.842 C 249.081 111.594,256.145 111.544,283.348 111.595 C 302.151 111.631,317.406 111.578,317.250 111.478 C 316.540 111.027,249.061 111.266,248.704 111.721 M246.255 118.356 C 246.119 118.714,246.053 119.053,246.109 119.109 C 246.165 119.165,246.329 118.872,246.473 118.458 C 246.794 117.538,246.600 117.447,246.255 118.356 M244.568 123.161 C 244.416 123.597,244.335 123.997,244.387 124.050 C 244.440 124.103,244.608 123.789,244.760 123.353 C 244.912 122.917,244.993 122.517,244.940 122.464 C 244.887 122.412,244.720 122.725,244.568 123.161 M241.073 133.162 C 240.937 133.520,240.871 133.859,240.927 133.915 C 240.983 133.971,241.147 133.678,241.291 133.264 C 241.612 132.343,241.418 132.253,241.073 133.162 M239.345 138.097 C 239.209 138.455,239.144 138.794,239.200 138.850 C 239.256 138.906,239.419 138.613,239.564 138.199 C 239.885 137.278,239.691 137.188,239.345 138.097 M229.968 164.747 C 229.832 165.105,229.767 165.444,229.823 165.500 C 229.879 165.556,230.043 165.263,230.187 164.849 C 230.508 163.929,230.314 163.838,229.968 164.747 M185.112 190.734 C 184.968 191.148,184.902 191.487,184.967 191.487 C 185.133 191.487,185.599 190.205,185.477 190.083 C 185.421 190.027,185.257 190.320,185.112 190.734 M69.486 204.195 C 69.708 204.534,69.931 204.812,69.980 204.812 C 70.029 204.812,69.943 204.534,69.789 204.195 C 69.634 203.856,69.412 203.578,69.295 203.578 C 69.178 203.578,69.264 203.856,69.486 204.195 M179.930 205.540 C 179.786 205.954,179.720 206.292,179.785 206.292 C 179.951 206.292,180.417 205.011,180.295 204.888 C 180.239 204.832,180.075 205.125,179.930 205.540 M211.955 216.320 C 211.819 216.679,211.753 217.017,211.809 217.073 C 211.865 217.129,212.029 216.836,212.173 216.422 C 212.494 215.502,212.301 215.411,211.955 216.320 M210.228 221.256 C 210.091 221.614,210.026 221.953,210.082 222.009 C 210.138 222.065,210.302 221.772,210.446 221.357 C 210.767 220.437,210.573 220.347,210.228 221.256 M208.500 226.191 C 208.364 226.549,208.298 226.888,208.354 226.944 C 208.410 227.000,208.574 226.707,208.719 226.293 C 209.040 225.372,208.846 225.282,208.500 226.191 M168.826 237.372 C 168.682 237.786,168.616 238.125,168.680 238.125 C 168.847 238.125,169.312 236.843,169.190 236.721 C 169.134 236.665,168.970 236.958,168.826 237.372 M203.318 240.997 C 203.182 241.355,203.116 241.694,203.172 241.749 C 203.228 241.805,203.392 241.512,203.537 241.098 C 203.858 240.178,203.664 240.088,203.318 240.997 M167.099 242.307 C 166.954 242.721,166.889 243.060,166.953 243.060 C 167.120 243.060,167.585 241.778,167.463 241.656 C 167.407 241.600,167.243 241.893,167.099 242.307 M199.178 252.918 C 199.033 253.332,198.968 253.671,199.032 253.671 C 199.198 253.671,199.664 252.389,199.542 252.267 C 199.486 252.211,199.322 252.504,199.178 252.918 M150.871 288.463 C 150.710 288.623,138.741 288.731,116.460 288.772 L 82.295 288.836 116.503 288.897 C 146.659 288.950,150.747 288.914,151.018 288.587 C 151.361 288.173,151.252 288.081,150.871 288.463 M177.655 314.285 C 177.519 314.643,177.453 314.982,177.509 315.038 C 177.565 315.094,177.729 314.801,177.874 314.386 C 178.194 313.466,178.001 313.376,177.655 314.285 M175.928 319.220 C 175.792 319.578,175.726 319.917,175.782 319.973 C 175.838 320.029,176.002 319.736,176.146 319.322 C 176.467 318.401,176.273 318.311,175.928 319.220 M174.200 324.155 C 174.064 324.513,173.999 324.852,174.055 324.908 C 174.111 324.964,174.274 324.671,174.419 324.257 C 174.740 323.336,174.546 323.246,174.200 324.155 M171.809 331.154 C 171.899 331.482,180.192 331.524,244.561 331.524 L 317.212 331.525 244.678 331.462 C 187.042 331.412,172.100 331.336,171.926 331.092 C 171.765 330.864,171.735 330.880,171.809 331.154 " stroke="none" fill="#f4dcdc" fill-rule="evenodd"></path></g></svg>